<svg width="1270" height="760" viewBox="0 0 1270 760" fill="none" xmlns="http://www.w3.org/2000/svg">
<rect width="1270" height="760" fill="white"/>
<rect x="776.793" y="210.165" width="134.299" height="100.315" rx="8.17475" fill="#EEEEEE"/>
<g clip-path="url(#clip0_324_74)">
<path fill-rule="evenodd" clip-rule="evenodd" d="M819.954 258.748C816.976 270.029 813.094 295.386 817.055 299.364H842.113C842.115 299.318 842.118 299.273 842.12 299.227C851.408 298.171 858.631 290.077 858.631 280.249V261.599C858.631 251.053 850.314 242.504 840.054 242.504H838.326C829.009 242.504 821.293 249.555 819.954 258.748Z" fill="#191847"/>
<path fill-rule="evenodd" clip-rule="evenodd" d="M848.9 276.688C852.881 271.885 855.576 265.998 855.126 259.401C853.829 240.395 828.088 244.576 823.081 254.169C818.074 263.761 818.669 288.094 825.14 289.809C827.721 290.493 833.218 288.818 838.814 285.351L835.302 310.89H856.039L848.9 276.688Z" fill="#B28B67"/>
<path fill-rule="evenodd" clip-rule="evenodd" d="M843.294 273.477C842.339 284.026 842.722 296.073 845.569 298.933H870.627C872.023 274 858.53 283.655 858.53 260.18C857.689 259.335 856.894 258.499 856.107 257.778L856.135 257.088C851.796 247.957 846.291 243.392 839.621 243.392C829.615 243.392 826.457 248.178 823.768 252.241C825.778 259.332 833.582 260.384 840.516 264.804C841.333 264.122 842.375 263.713 843.51 263.713C846.135 263.713 848.262 265.9 848.262 268.598C848.262 271.295 846.135 273.482 843.51 273.482C843.438 273.482 843.366 273.481 843.294 273.477Z" fill="#191847"/>
</g>
<rect x="776.793" y="324.32" width="134.299" height="100.675" rx="8.17475" fill="#EEEEEE"/>
<g clip-path="url(#clip1_324_74)">
<path fill-rule="evenodd" clip-rule="evenodd" d="M848.9 391.786C852.881 387.115 855.576 381.39 855.126 374.976C853.829 356.493 828.088 360.559 823.081 369.887C818.074 379.216 818.669 402.878 825.14 404.545C827.721 405.21 833.218 403.581 838.814 400.21L835.302 425.044H856.039L848.9 391.786Z" fill="#B28B67"/>
<path fill-rule="evenodd" clip-rule="evenodd" d="M864.167 368.823C864.837 368.16 865.202 367.213 865.518 366.314C865.846 365.38 866.165 364.436 866.383 363.464C866.819 361.521 866.823 359.287 865.436 357.779C864.324 356.569 862.656 356.027 861.116 355.909C860.09 355.83 859.037 355.974 858.053 356.297C857.078 356.618 856.237 357.256 855.291 357.653C855.255 355.56 854.896 353.369 853.833 351.582C852.811 349.862 851.181 348.897 849.324 348.642C847.419 348.38 845.537 348.825 843.832 349.747C843.405 349.978 842.981 350.22 842.577 350.494C842.238 350.723 841.885 350.999 841.487 351.093C841.044 351.197 840.824 350.941 840.536 350.617C840.198 350.238 839.817 349.904 839.414 349.608C837.633 348.299 835.295 347.761 833.231 348.546C832.281 348.907 831.356 349.521 830.711 350.367C830.136 351.121 829.725 352.317 828.932 352.842C828.595 353.065 828.357 352.77 828.05 352.552C827.59 352.223 827.15 351.861 826.684 351.542C826.029 351.094 825.32 350.758 824.561 350.583C823.45 350.326 821.914 350.386 821.596 351.841C821.476 352.388 821.568 352.972 821.606 353.523C821.659 354.279 821.715 355.035 821.78 355.79C821.83 356.363 821.893 356.917 822.001 357.48C822.059 357.78 822.24 358.339 822.111 358.64C821.95 359.016 821.208 358.802 820.89 358.815C820.264 358.841 819.635 358.951 819.055 359.218C818.606 359.426 818.134 359.731 817.945 360.245C817.828 360.561 817.859 360.886 817.914 361.211C817.98 361.601 817.904 361.808 817.855 362.202C817.013 361.788 814.097 360.867 813.73 362.375C813.608 362.877 813.886 363.444 814.098 363.867C814.471 364.61 814.959 365.288 815.458 365.936C816.499 367.286 817.741 368.45 819.078 369.446C817.512 370.142 817.103 372.195 818.459 373.418C819.058 373.958 819.863 374.078 820.618 374.044C820.895 374.031 821.293 373.925 821.511 373.973C821.628 373.999 821.753 374.098 821.915 374.109C822.981 374.182 824.184 373.926 825.226 373.689C827.083 373.268 828.841 372.389 830.276 371.05C830.644 370.706 830.949 370.508 831.444 370.513C831.879 370.518 832.305 370.637 832.739 370.648C833.887 370.677 834.922 370.116 835.988 369.743C836.053 371.182 836.463 372.768 837.053 374.063C837.533 375.119 838.536 375.272 839.522 375.365C842.675 375.662 845.838 375.331 848.995 375.335C845.939 376.025 842.782 376.31 839.753 377.122C838.384 377.489 839.43 378.412 840.015 379.051C840.979 380.104 841.696 381.408 842.193 382.782C843.687 380.835 846.329 379.551 848.67 380.15C851.256 380.811 853.078 384.306 851.424 386.82C850.464 388.279 848.73 388.842 847.287 389.469C848.412 390.638 848.685 392.366 849.362 393.821C849.696 394.538 850.165 395.35 850.912 395.6C851.189 395.692 851.513 395.7 851.731 395.925C852.001 396.204 852.066 396.516 852.411 396.756C853.787 397.712 855.938 397.639 857.158 396.39C858.261 395.261 857.974 393.475 857.053 392.33C858.52 391.719 861.192 390.933 860.609 388.648C863.788 388.437 871.506 383.284 867.24 379.519C869.581 378.196 871.732 374.964 870.228 372.114C869.07 369.92 866.377 368.94 864.167 368.823Z" fill="#191847"/>
</g>
<rect x="776.793" y="438.474" width="134.299" height="100.675" rx="8.17475" fill="#EEEEEE"/>
<g clip-path="url(#clip2_324_74)">
<path fill-rule="evenodd" clip-rule="evenodd" d="M848.9 505.94C852.881 501.269 855.576 495.545 855.126 489.13C853.829 470.648 828.088 474.714 823.081 484.042C818.074 493.37 818.669 517.032 825.14 518.699C827.721 519.364 833.218 517.735 838.814 514.365L835.302 539.199H856.039L848.9 505.94Z" fill="#B28B67"/>
<path fill-rule="evenodd" clip-rule="evenodd" d="M832.226 485.395C835.041 486.968 837.043 489.916 839.454 493.784C840.041 493.553 840.681 493.426 841.35 493.426C844.213 493.426 846.534 495.746 846.534 498.608C846.534 500.061 845.936 501.374 844.972 502.315C846.172 504.007 847.516 505.775 849.057 507.6C854.806 504.152 859.082 494.105 853.593 484.405C848.87 464.976 822.109 477.035 816.96 473.758C815.835 480.809 819.464 486.494 832.226 485.395Z" fill="#191847"/>
</g>
<rect x="360.464" y="228.631" width="402.898" height="302.174" rx="16.3495" fill="#CFDAF5"/>
<g clip-path="url(#clip3_324_74)">
<path fill-rule="evenodd" clip-rule="evenodd" d="M549.165 444.279C538.927 432.292 531.997 417.602 533.155 401.141C536.492 353.713 602.681 364.147 615.557 388.084C628.432 412.022 626.902 472.742 610.262 477.02C603.626 478.726 589.489 474.547 575.101 465.897L584.132 529.626H530.807L549.165 444.279Z" fill="#B28B67"/>
<path fill-rule="evenodd" clip-rule="evenodd" d="M620.591 398.832C620.063 395.729 618.772 392.284 617.73 389.348C616.387 385.564 614.355 382.152 612.119 378.936C607.908 372.882 602.857 367.415 597.28 362.877C587.094 354.589 574.126 349.808 561.375 351.361C554.936 352.145 548.686 354.594 543.367 358.672C538.56 362.355 533.937 367.778 527.714 368.168C520.942 368.592 514.735 362.63 509.304 358.948C503.181 354.797 496.667 351.772 489.51 350.597C477.521 348.628 466.258 352.668 457.996 362.479C449.203 372.92 442.811 388.231 448.586 402.065C449.659 404.637 451.04 406.805 453.021 408.602C454.839 410.249 457.614 412.002 458.351 414.635C459.134 417.434 456.796 421.044 455.889 423.569C454.59 427.187 453.524 430.984 453.903 434.917C454.526 441.375 458.595 447.54 462.891 451.784C467.263 456.103 472.644 458.58 478.391 459.722C482.229 460.484 486.151 460.905 490.051 460.619C491.987 460.477 493.696 459.94 495.572 459.514C497.396 459.099 498.416 459.582 499.963 460.58C507.153 465.216 514.884 467.01 523.187 466.321C530.193 465.738 538.269 464.045 543.985 459.256C550.333 453.938 550.207 446.604 548.713 438.768C550.296 439.551 554.674 440.035 552.058 436.917C551.021 435.682 549.063 435.179 547.733 434.453C546.185 433.607 544.612 432.514 543.41 431.134C538.555 425.564 543.458 414.227 549.561 412.359C558.627 409.583 560.657 422.373 567.129 425.681C570.85 427.583 574.743 424.983 577.531 422.328C581.266 418.772 583.811 414.061 586.008 409.267C587.819 405.318 589.503 401.315 591.348 397.386C592.21 395.552 595.192 390.365 593.694 388.291C600.188 386.999 607.421 389.691 613.014 393.221C615.325 394.68 617.087 396.289 618.32 398.865C618.585 399.417 619.16 401.058 619.882 401.125C621.226 401.251 620.724 399.612 620.591 398.832Z" fill="#191847"/>
</g>
<rect x="505.791" y="592.18" width="63.3222" height="63.3222" rx="4.12971" fill="#0D45CD" stroke="#0D45CD" stroke-width="2.75314"/>
<path d="M526.092 631.589L519.749 618.935V635.322H515.884V612.196H520.872L527.942 627.03L535.211 612.196H539.737V635.322H535.838V618.935L529.495 631.589H526.092Z" fill="white"/>
<path d="M545.364 631.589L539.021 618.935V635.322H535.156V612.196H540.144L547.214 627.03L554.483 612.196H559.009V635.322H555.11V618.935L548.767 631.589H545.364Z" fill="white"/>
<path d="M596.278 632.083L589.935 619.429V635.816H586.07V612.69H591.058L598.129 627.523L605.397 612.69H609.923V635.816H606.025V619.429L599.681 632.083H596.278ZM627.081 630.86C626.839 632.534 626.09 633.834 624.834 634.759C623.601 635.684 621.993 636.146 620.011 636.146C617.808 636.146 616.024 635.519 614.659 634.263C613.315 633.008 612.643 631.169 612.643 628.746V626.433C612.643 624.032 613.315 622.204 614.659 620.949C616.002 619.672 617.808 619.033 620.077 619.033C622.257 619.033 623.986 619.683 625.264 620.982C626.541 622.281 627.18 624.165 627.18 626.631V628.515H616.74C616.762 628.735 616.784 628.955 616.806 629.175C616.828 629.374 616.85 629.583 616.872 629.803C617.004 630.75 617.346 631.488 617.896 632.017C618.447 632.545 619.229 632.809 620.242 632.809C620.308 632.809 620.363 632.809 620.407 632.809C620.473 632.787 620.528 632.776 620.572 632.776C621.343 632.732 621.938 632.534 622.357 632.182C622.775 631.807 623.05 631.367 623.182 630.86H627.081ZM616.74 625.971L617.137 626.07H623.348C623.282 624.792 622.995 623.856 622.489 623.262C621.982 622.645 621.178 622.337 620.077 622.337C618.998 622.337 618.183 622.667 617.632 623.328C617.104 623.966 616.806 624.847 616.74 625.971ZM634.977 633.305C636.034 633.305 636.838 633.03 637.388 632.479C637.961 631.906 638.247 630.959 638.247 629.638V628.713H635.043C634.052 628.713 633.347 628.889 632.928 629.241C632.532 629.594 632.334 630.078 632.334 630.695V631.224C632.334 631.906 632.543 632.424 632.961 632.776C633.38 633.129 634.052 633.305 634.977 633.305ZM638.247 635.816V633.801C637.851 634.594 637.278 635.188 636.529 635.585C635.803 635.959 634.822 636.146 633.589 636.146C631.959 636.146 630.671 635.75 629.724 634.957C628.799 634.142 628.336 633.019 628.336 631.587V630.695C628.336 629.462 628.81 628.438 629.757 627.623C630.704 626.808 632.29 626.4 634.514 626.4H638.247V625.574C638.247 624.517 638.038 623.746 637.62 623.262C637.223 622.755 636.518 622.502 635.505 622.502C634.602 622.502 633.941 622.689 633.523 623.063C633.104 623.438 632.851 623.922 632.763 624.517H628.832C629.052 622.887 629.713 621.566 630.814 620.553C631.915 619.539 633.567 619.033 635.77 619.033C637.84 619.033 639.437 619.539 640.56 620.553C641.683 621.544 642.245 623.085 642.245 625.178V635.816H638.247ZM654.25 632.644V635.981H651.342C649.316 635.981 647.84 635.519 646.915 634.594C645.99 633.668 645.528 632.16 645.528 630.067V622.733H643.083V619.363H645.528V614.606H649.525V619.363H654.25V622.733H649.525V630.067C649.525 630.838 649.713 631.466 650.087 631.951C650.461 632.413 651.155 632.644 652.168 632.644H654.25ZM655.748 642.589H654.558V639.12H655.649C656.287 639.12 656.838 639.043 657.301 638.888C657.763 638.734 658.193 638.415 658.589 637.93C659.007 637.446 659.426 636.697 659.844 635.684L660.406 634.329L654.096 619.363H658.424L662.388 629.374L666.518 619.363H670.615L663.214 636.873C662.598 638.327 661.959 639.472 661.298 640.309C660.659 641.146 659.9 641.73 659.018 642.06C658.137 642.412 657.047 642.589 655.748 642.589ZM689.176 632.083L682.833 619.429V635.816H678.968V612.69H683.956L691.026 627.523L698.295 612.69H702.821V635.816H698.922V619.429L692.579 632.083H689.176ZM719.979 630.86C719.736 632.534 718.988 633.834 717.732 634.759C716.499 635.684 714.891 636.146 712.909 636.146C710.706 636.146 708.922 635.519 707.556 634.263C706.213 633.008 705.541 631.169 705.541 628.746V626.433C705.541 624.032 706.213 622.204 707.556 620.949C708.9 619.672 710.706 619.033 712.975 619.033C715.155 619.033 716.884 619.683 718.162 620.982C719.439 622.281 720.078 624.165 720.078 626.631V628.515H709.638C709.66 628.735 709.682 628.955 709.704 629.175C709.726 629.374 709.748 629.583 709.77 629.803C709.902 630.75 710.244 631.488 710.794 632.017C711.345 632.545 712.127 632.809 713.14 632.809C713.206 632.809 713.261 632.809 713.305 632.809C713.371 632.787 713.426 632.776 713.47 632.776C714.241 632.732 714.836 632.534 715.254 632.182C715.673 631.807 715.948 631.367 716.08 630.86H719.979ZM709.638 625.971L710.034 626.07H716.245C716.179 624.792 715.893 623.856 715.386 623.262C714.88 622.645 714.076 622.337 712.975 622.337C711.895 622.337 711.081 622.667 710.53 623.328C710.001 623.966 709.704 624.847 709.638 625.971ZM735.903 630.86C735.66 632.534 734.911 633.834 733.656 634.759C732.423 635.684 730.815 636.146 728.832 636.146C726.63 636.146 724.846 635.519 723.48 634.263C722.137 633.008 721.465 631.169 721.465 628.746V626.433C721.465 624.032 722.137 622.204 723.48 620.949C724.824 619.672 726.63 619.033 728.899 619.033C731.079 619.033 732.808 619.683 734.085 620.982C735.363 622.281 736.002 624.165 736.002 626.631V628.515H725.562C725.584 628.735 725.606 628.955 725.628 629.175C725.65 629.374 725.672 629.583 725.694 629.803C725.826 630.75 726.167 631.488 726.718 632.017C727.269 632.545 728.051 632.809 729.064 632.809C729.13 632.809 729.185 632.809 729.229 632.809C729.295 632.787 729.35 632.776 729.394 632.776C730.165 632.732 730.76 632.534 731.178 632.182C731.597 631.807 731.872 631.367 732.004 630.86H735.903ZM725.562 625.971L725.958 626.07H732.169C732.103 624.792 731.817 623.856 731.31 623.262C730.804 622.645 730 622.337 728.899 622.337C727.819 622.337 727.004 622.667 726.454 623.328C725.925 623.966 725.628 624.847 725.562 625.971ZM747.47 632.644V635.981H744.563C742.536 635.981 741.061 635.519 740.136 634.594C739.211 633.668 738.748 632.16 738.748 630.067V622.733H736.303V619.363H738.748V614.606H742.746V619.363H747.47V622.733H742.746V630.067C742.746 630.838 742.933 631.466 743.307 631.951C743.682 632.413 744.376 632.644 745.389 632.644H747.47ZM755.047 622.072C754.166 622.072 753.538 622.226 753.164 622.535C752.812 622.843 752.635 623.295 752.635 623.889C752.635 624.484 752.801 624.913 753.131 625.178C753.461 625.442 754.012 625.662 754.783 625.839L756.897 626.235C758.219 626.499 759.265 626.83 760.036 627.226C760.829 627.601 761.39 628.096 761.721 628.713C762.073 629.307 762.249 630.089 762.249 631.058C762.249 632.754 761.677 634.032 760.531 634.891C759.386 635.728 757.668 636.146 755.377 636.146C753.219 636.146 751.534 635.706 750.323 634.825C749.133 633.922 748.429 632.523 748.208 630.629H751.975C752.129 631.488 752.459 632.127 752.966 632.545C753.494 632.942 754.32 633.14 755.444 633.14C756.479 633.14 757.206 632.975 757.624 632.644C758.043 632.314 758.252 631.851 758.252 631.257C758.252 630.838 758.175 630.519 758.02 630.299C757.888 630.056 757.657 629.858 757.327 629.704C756.996 629.55 756.523 629.418 755.906 629.307L753.461 628.845C751.875 628.559 750.675 628.052 749.86 627.325C749.045 626.598 748.638 625.508 748.638 624.055C748.638 622.513 749.166 621.29 750.224 620.387C751.281 619.484 752.878 619.033 755.014 619.033C757.327 619.033 759.023 619.495 760.102 620.42C761.203 621.345 761.798 622.678 761.886 624.418H757.954C757.866 623.625 757.602 623.041 757.161 622.667C756.721 622.27 756.016 622.072 755.047 622.072Z" fill="#222222"/>
<path d="M164.737 142.121V129.641H153.057V142.121H148.217V114.121H153.057V125.441H164.737V114.121H169.577V142.121H164.737ZM183.012 139.081C184.292 139.081 185.265 138.748 185.932 138.081C186.625 137.388 186.972 136.241 186.972 134.641V133.521H183.092C181.892 133.521 181.039 133.735 180.532 134.161C180.052 134.588 179.812 135.175 179.812 135.921V136.561C179.812 137.388 180.065 138.015 180.572 138.441C181.079 138.868 181.892 139.081 183.012 139.081ZM186.972 142.121V139.681C186.492 140.641 185.799 141.361 184.892 141.841C184.012 142.295 182.825 142.521 181.332 142.521C179.359 142.521 177.799 142.041 176.652 141.081C175.532 140.095 174.972 138.735 174.972 137.001V135.921C174.972 134.428 175.545 133.188 176.692 132.201C177.839 131.215 179.759 130.721 182.452 130.721H186.972V129.721C186.972 128.441 186.719 127.508 186.212 126.921C185.732 126.308 184.879 126.001 183.652 126.001C182.559 126.001 181.759 126.228 181.252 126.681C180.745 127.135 180.439 127.721 180.332 128.441H175.572C175.839 126.468 176.639 124.868 177.972 123.641C179.305 122.415 181.305 121.801 183.972 121.801C186.479 121.801 188.412 122.415 189.772 123.641C191.132 124.841 191.812 126.708 191.812 129.241V142.121H186.972ZM204.148 125.481C203.082 125.481 202.322 125.668 201.868 126.041C201.442 126.415 201.228 126.961 201.228 127.681C201.228 128.401 201.428 128.921 201.828 129.241C202.228 129.561 202.895 129.828 203.828 130.041L206.388 130.521C207.988 130.841 209.255 131.241 210.188 131.721C211.148 132.175 211.828 132.775 212.228 133.521C212.655 134.241 212.868 135.188 212.868 136.361C212.868 138.415 212.175 139.961 210.788 141.001C209.402 142.015 207.322 142.521 204.548 142.521C201.935 142.521 199.895 141.988 198.428 140.921C196.988 139.828 196.135 138.135 195.868 135.841H200.428C200.615 136.881 201.015 137.655 201.628 138.161C202.268 138.641 203.268 138.881 204.628 138.881C205.882 138.881 206.762 138.681 207.268 138.281C207.775 137.881 208.028 137.321 208.028 136.601C208.028 136.095 207.935 135.708 207.748 135.441C207.588 135.148 207.308 134.908 206.908 134.721C206.508 134.535 205.935 134.375 205.188 134.241L202.228 133.681C200.308 133.335 198.855 132.721 197.868 131.841C196.882 130.961 196.388 129.641 196.388 127.881C196.388 126.015 197.028 124.535 198.308 123.441C199.588 122.348 201.522 121.801 204.108 121.801C206.908 121.801 208.962 122.361 210.268 123.481C211.602 124.601 212.322 126.215 212.428 128.321H207.668C207.562 127.361 207.242 126.655 206.708 126.201C206.175 125.721 205.322 125.481 204.148 125.481ZM224.578 125.481C223.511 125.481 222.751 125.668 222.298 126.041C221.871 126.415 221.658 126.961 221.658 127.681C221.658 128.401 221.858 128.921 222.258 129.241C222.658 129.561 223.325 129.828 224.258 130.041L226.818 130.521C228.418 130.841 229.685 131.241 230.618 131.721C231.578 132.175 232.258 132.775 232.658 133.521C233.085 134.241 233.298 135.188 233.298 136.361C233.298 138.415 232.605 139.961 231.218 141.001C229.831 142.015 227.751 142.521 224.978 142.521C222.365 142.521 220.325 141.988 218.858 140.921C217.418 139.828 216.565 138.135 216.298 135.841H220.858C221.045 136.881 221.445 137.655 222.058 138.161C222.698 138.641 223.698 138.881 225.058 138.881C226.311 138.881 227.191 138.681 227.698 138.281C228.205 137.881 228.458 137.321 228.458 136.601C228.458 136.095 228.365 135.708 228.178 135.441C228.018 135.148 227.738 134.908 227.338 134.721C226.938 134.535 226.365 134.375 225.618 134.241L222.658 133.681C220.738 133.335 219.285 132.721 218.298 131.841C217.311 130.961 216.818 129.641 216.818 127.881C216.818 126.015 217.458 124.535 218.738 123.441C220.018 122.348 221.951 121.801 224.538 121.801C227.338 121.801 229.391 122.361 230.698 123.481C232.031 124.601 232.751 126.215 232.858 128.321H228.098C227.991 127.361 227.671 126.655 227.138 126.201C226.605 125.721 225.751 125.481 224.578 125.481ZM242.648 135.921C242.648 136.775 242.794 137.361 243.088 137.681C243.408 137.975 243.954 138.121 244.728 138.121H245.328V142.321H244.488C242.914 142.321 241.634 142.148 240.648 141.801C239.661 141.455 238.941 140.841 238.488 139.961C238.034 139.055 237.808 137.788 237.808 136.161V112.921H242.648V135.921ZM266.052 136.121C265.759 138.148 264.852 139.721 263.332 140.841C261.839 141.961 259.892 142.521 257.492 142.521C254.826 142.521 252.666 141.761 251.012 140.241C249.386 138.721 248.572 136.495 248.572 133.561V130.761C248.572 127.855 249.386 125.641 251.012 124.121C252.639 122.575 254.826 121.801 257.572 121.801C260.212 121.801 262.306 122.588 263.852 124.161C265.399 125.735 266.172 128.015 266.172 131.001V133.281H253.532C253.559 133.548 253.586 133.815 253.612 134.081C253.639 134.321 253.666 134.575 253.692 134.841C253.852 135.988 254.266 136.881 254.932 137.521C255.599 138.161 256.546 138.481 257.772 138.481C257.852 138.481 257.919 138.481 257.972 138.481C258.052 138.455 258.119 138.441 258.172 138.441C259.106 138.388 259.826 138.148 260.332 137.721C260.839 137.268 261.172 136.735 261.332 136.121H266.052ZM253.532 130.201L254.012 130.321H261.532C261.452 128.775 261.106 127.641 260.492 126.921C259.879 126.175 258.906 125.801 257.572 125.801C256.266 125.801 255.279 126.201 254.612 127.001C253.972 127.775 253.612 128.841 253.532 130.201ZM282.532 133.641H271.852V129.321H282.532V133.641ZM299.315 126.281H294.435V142.121H289.595V126.281H286.555V122.201H289.595V119.961C289.595 117.615 290.221 115.828 291.475 114.601C292.728 113.348 294.635 112.721 297.195 112.721H300.115V116.761H297.595C296.341 116.761 295.501 117.055 295.075 117.641C294.648 118.228 294.435 119.028 294.435 120.041V122.201H299.315V126.281ZM307.848 131.881V142.121H303.048V122.201H307.848V125.601C308.514 124.321 309.328 123.375 310.288 122.761C311.274 122.121 312.394 121.801 313.648 121.801H314.608V126.601H313.368C311.768 126.601 310.448 127.028 309.408 127.881C308.368 128.708 307.848 130.041 307.848 131.881ZM334.802 136.121C334.509 138.148 333.602 139.721 332.082 140.841C330.589 141.961 328.642 142.521 326.242 142.521C323.576 142.521 321.416 141.761 319.762 140.241C318.136 138.721 317.322 136.495 317.322 133.561V130.761C317.322 127.855 318.136 125.641 319.762 124.121C321.389 122.575 323.576 121.801 326.322 121.801C328.962 121.801 331.056 122.588 332.602 124.161C334.149 125.735 334.922 128.015 334.922 131.001V133.281H322.282C322.309 133.548 322.336 133.815 322.362 134.081C322.389 134.321 322.416 134.575 322.442 134.841C322.602 135.988 323.016 136.881 323.682 137.521C324.349 138.161 325.296 138.481 326.522 138.481C326.602 138.481 326.669 138.481 326.722 138.481C326.802 138.455 326.869 138.441 326.922 138.441C327.856 138.388 328.576 138.148 329.082 137.721C329.589 137.268 329.922 136.735 330.082 136.121H334.802ZM322.282 130.201L322.762 130.321H330.282C330.202 128.775 329.856 127.641 329.242 126.921C328.629 126.175 327.656 125.801 326.322 125.801C325.016 125.801 324.029 126.201 323.362 127.001C322.722 127.775 322.362 128.841 322.282 130.201ZM356.482 136.121C356.189 138.148 355.282 139.721 353.762 140.841C352.269 141.961 350.322 142.521 347.922 142.521C345.255 142.521 343.095 141.761 341.442 140.241C339.815 138.721 339.002 136.495 339.002 133.561V130.761C339.002 127.855 339.815 125.641 341.442 124.121C343.069 122.575 345.255 121.801 348.002 121.801C350.642 121.801 352.735 122.588 354.282 124.161C355.829 125.735 356.602 128.015 356.602 131.001V133.281H343.962C343.989 133.548 344.015 133.815 344.042 134.081C344.069 134.321 344.095 134.575 344.122 134.841C344.282 135.988 344.695 136.881 345.362 137.521C346.029 138.161 346.975 138.481 348.202 138.481C348.282 138.481 348.349 138.481 348.402 138.481C348.482 138.455 348.549 138.441 348.602 138.441C349.535 138.388 350.255 138.148 350.762 137.721C351.269 137.268 351.602 136.735 351.762 136.121H356.482ZM343.962 130.201L344.442 130.321H351.962C351.882 128.775 351.535 127.641 350.922 126.921C350.309 126.175 349.335 125.801 348.002 125.801C346.695 125.801 345.709 126.201 345.042 127.001C344.402 127.775 344.042 128.841 343.962 130.201ZM389.745 142.121L385.425 128.201L380.945 142.121H375.625L370.225 122.201H375.545L378.745 136.761L383.345 122.201H387.785L392.265 136.801L395.665 122.201H400.745L395.305 142.121H389.745ZM410.668 139.081C411.948 139.081 412.921 138.748 413.588 138.081C414.281 137.388 414.628 136.241 414.628 134.641V133.521H410.748C409.548 133.521 408.695 133.735 408.188 134.161C407.708 134.588 407.468 135.175 407.468 135.921V136.561C407.468 137.388 407.721 138.015 408.228 138.441C408.735 138.868 409.548 139.081 410.668 139.081ZM414.628 142.121V139.681C414.148 140.641 413.455 141.361 412.548 141.841C411.668 142.295 410.481 142.521 408.988 142.521C407.015 142.521 405.455 142.041 404.308 141.081C403.188 140.095 402.628 138.735 402.628 137.001V135.921C402.628 134.428 403.201 133.188 404.348 132.201C405.495 131.215 407.415 130.721 410.108 130.721H414.628V129.721C414.628 128.441 414.375 127.508 413.868 126.921C413.388 126.308 412.535 126.001 411.308 126.001C410.215 126.001 409.415 126.228 408.908 126.681C408.401 127.135 408.095 127.721 407.988 128.441H403.228C403.495 126.468 404.295 124.868 405.628 123.641C406.961 122.415 408.961 121.801 411.628 121.801C414.135 121.801 416.068 122.415 417.428 123.641C418.788 124.841 419.468 126.708 419.468 129.241V142.121H414.628ZM423.663 150.321H422.223V146.121H423.543C424.317 146.121 424.983 146.028 425.543 145.841C426.103 145.655 426.623 145.268 427.103 144.681C427.61 144.095 428.117 143.188 428.623 141.961L429.303 140.321L421.663 122.201H426.903L431.703 134.321L436.703 122.201H441.663L432.703 143.401C431.957 145.161 431.183 146.548 430.383 147.561C429.61 148.575 428.69 149.281 427.623 149.681C426.557 150.108 425.237 150.321 423.663 150.321ZM467.497 138.281V142.321H463.977C461.523 142.321 459.737 141.761 458.617 140.641C457.497 139.521 456.937 137.695 456.937 135.161V126.281H453.977V122.201H456.937V116.441H461.777V122.201H467.497V126.281H461.777V135.161C461.777 136.095 462.003 136.855 462.457 137.441C462.91 138.001 463.75 138.281 464.977 138.281H467.497ZM479.487 142.521C476.741 142.521 474.541 141.761 472.887 140.241C471.234 138.721 470.407 136.495 470.407 133.561V130.761C470.407 127.855 471.234 125.641 472.887 124.121C474.541 122.575 476.741 121.801 479.487 121.801C482.261 121.801 484.474 122.575 486.127 124.121C487.781 125.641 488.607 127.855 488.607 130.761V133.561C488.607 136.495 487.781 138.721 486.127 140.241C484.474 141.761 482.261 142.521 479.487 142.521ZM479.487 126.001C478.074 126.001 477.034 126.455 476.367 127.361C475.701 128.241 475.367 129.428 475.367 130.921V133.401C475.367 134.895 475.701 136.095 476.367 137.001C477.034 137.881 478.074 138.321 479.487 138.321C480.927 138.321 481.981 137.881 482.647 137.001C483.341 136.095 483.687 134.895 483.687 133.401V130.921C483.687 129.428 483.341 128.241 482.647 127.361C481.981 126.455 480.927 126.001 479.487 126.001ZM506.776 118.881C505.843 118.881 505.096 118.628 504.536 118.121C503.976 117.615 503.696 116.961 503.696 116.161C503.696 115.335 503.976 114.668 504.536 114.161C505.096 113.655 505.843 113.401 506.776 113.401C507.683 113.401 508.416 113.655 508.976 114.161C509.536 114.668 509.816 115.335 509.816 116.161C509.816 116.961 509.536 117.615 508.976 118.121C508.416 118.628 507.683 118.881 506.776 118.881ZM509.176 143.441C509.176 145.228 508.883 146.615 508.296 147.601C507.709 148.588 506.883 149.281 505.816 149.681C504.776 150.108 503.589 150.321 502.256 150.321H500.496V146.281H501.616C502.576 146.281 503.269 146.041 503.696 145.561C504.149 145.108 504.376 144.335 504.376 143.241V122.201H509.176V143.441ZM523.354 142.521C520.608 142.521 518.408 141.761 516.754 140.241C515.101 138.721 514.274 136.495 514.274 133.561V130.761C514.274 127.855 515.101 125.641 516.754 124.121C518.408 122.575 520.608 121.801 523.354 121.801C526.128 121.801 528.341 122.575 529.994 124.121C531.648 125.641 532.474 127.855 532.474 130.761V133.561C532.474 136.495 531.648 138.721 529.994 140.241C528.341 141.761 526.128 142.521 523.354 142.521ZM523.354 126.001C521.941 126.001 520.901 126.455 520.234 127.361C519.568 128.241 519.234 129.428 519.234 130.921V133.401C519.234 134.895 519.568 136.095 520.234 137.001C520.901 137.881 521.941 138.321 523.354 138.321C524.794 138.321 525.848 137.881 526.514 137.001C527.208 136.095 527.554 134.895 527.554 133.401V130.921C527.554 129.428 527.208 128.241 526.514 127.361C525.848 126.455 524.794 126.001 523.354 126.001ZM539.94 118.881C539.033 118.881 538.3 118.628 537.74 118.121C537.18 117.615 536.9 116.961 536.9 116.161C536.9 115.335 537.18 114.668 537.74 114.161C538.3 113.655 539.033 113.401 539.94 113.401C540.847 113.401 541.58 113.655 542.14 114.161C542.7 114.668 542.98 115.335 542.98 116.161C542.98 116.961 542.7 117.615 542.14 118.121C541.58 118.628 540.847 118.881 539.94 118.881ZM537.54 142.121V122.201H542.34V142.121H537.54ZM553.238 131.201V142.121H548.438V122.201H553.238V125.681C553.905 124.348 554.758 123.375 555.798 122.761C556.838 122.121 558.012 121.801 559.318 121.801C561.372 121.801 562.972 122.401 564.118 123.601C565.292 124.801 565.878 126.575 565.878 128.921V142.121H561.038V130.241C561.038 128.801 560.758 127.735 560.198 127.041C559.665 126.348 558.758 126.001 557.478 126.001C556.705 126.001 555.998 126.201 555.358 126.601C554.718 126.975 554.198 127.548 553.798 128.321C553.425 129.068 553.238 130.028 553.238 131.201ZM573.562 147.961H570.282L571.962 136.921H577.402L573.562 147.961ZM602.208 138.321C603.594 138.321 604.621 137.868 605.288 136.961C605.954 136.055 606.288 134.855 606.288 133.361V131.001C606.288 129.481 605.954 128.268 605.288 127.361C604.621 126.455 603.554 126.001 602.088 126.001C600.781 126.001 599.741 126.428 598.968 127.281C598.221 128.108 597.848 129.348 597.848 131.001V133.441C597.848 134.935 598.234 136.121 599.008 137.001C599.808 137.881 600.874 138.321 602.208 138.321ZM603.608 142.521C602.194 142.521 601.008 142.241 600.048 141.681C599.114 141.095 598.381 140.281 597.848 139.241V150.121H593.048V122.201H597.848V125.121C598.381 124.001 599.141 123.175 600.128 122.641C601.114 122.081 602.274 121.801 603.608 121.801C605.048 121.801 606.341 122.148 607.488 122.841C608.634 123.508 609.541 124.508 610.208 125.841C610.901 127.175 611.248 128.815 611.248 130.761V133.561C611.248 135.508 610.901 137.148 610.208 138.481C609.541 139.815 608.634 140.828 607.488 141.521C606.341 142.188 605.048 142.521 603.608 142.521ZM621.207 131.881V142.121H616.407V122.201H621.207V125.601C621.874 124.321 622.687 123.375 623.647 122.761C624.634 122.121 625.754 121.801 627.007 121.801H627.967V126.601H626.727C625.127 126.601 623.807 127.028 622.767 127.881C621.727 128.708 621.207 130.041 621.207 131.881ZM648.162 136.121C647.868 138.148 646.962 139.721 645.442 140.841C643.948 141.961 642.002 142.521 639.602 142.521C636.935 142.521 634.775 141.761 633.122 140.241C631.495 138.721 630.682 136.495 630.682 133.561V130.761C630.682 127.855 631.495 125.641 633.122 124.121C634.748 122.575 636.935 121.801 639.682 121.801C642.322 121.801 644.415 122.588 645.962 124.161C647.508 125.735 648.282 128.015 648.282 131.001V133.281H635.642C635.668 133.548 635.695 133.815 635.722 134.081C635.748 134.321 635.775 134.575 635.802 134.841C635.962 135.988 636.375 136.881 637.042 137.521C637.708 138.161 638.655 138.481 639.882 138.481C639.962 138.481 640.028 138.481 640.082 138.481C640.162 138.455 640.228 138.441 640.282 138.441C641.215 138.388 641.935 138.148 642.442 137.721C642.948 137.268 643.282 136.735 643.442 136.121H648.162ZM635.642 130.201L636.122 130.321H643.642C643.562 128.775 643.215 127.641 642.602 126.921C641.988 126.175 641.015 125.801 639.682 125.801C638.375 125.801 637.388 126.201 636.722 127.001C636.082 127.775 635.722 128.841 635.642 130.201ZM662.481 138.321C663.868 138.321 664.895 137.868 665.561 136.961C666.228 136.055 666.561 134.855 666.561 133.361V131.001C666.561 129.481 666.228 128.268 665.561 127.361C664.895 126.455 663.828 126.001 662.361 126.001C661.055 126.001 660.015 126.428 659.241 127.281C658.495 128.108 658.121 129.348 658.121 131.001V133.441C658.121 134.935 658.508 136.121 659.281 137.001C660.081 137.881 661.148 138.321 662.481 138.321ZM663.881 142.521C662.468 142.521 661.281 142.241 660.321 141.681C659.388 141.095 658.655 140.281 658.121 139.241V150.121H653.321V122.201H658.121V125.121C658.655 124.001 659.415 123.175 660.401 122.641C661.388 122.081 662.548 121.801 663.881 121.801C665.321 121.801 666.615 122.148 667.761 122.841C668.908 123.508 669.815 124.508 670.481 125.841C671.175 127.175 671.521 128.815 671.521 130.761V133.561C671.521 135.508 671.175 137.148 670.481 138.481C669.815 139.815 668.908 140.828 667.761 141.521C666.615 142.188 665.321 142.521 663.881 142.521ZM694.184 139.081C695.464 139.081 696.437 138.748 697.104 138.081C697.797 137.388 698.144 136.241 698.144 134.641V133.521H694.264C693.064 133.521 692.21 133.735 691.704 134.161C691.224 134.588 690.984 135.175 690.984 135.921V136.561C690.984 137.388 691.237 138.015 691.744 138.441C692.25 138.868 693.064 139.081 694.184 139.081ZM698.144 142.121V139.681C697.664 140.641 696.97 141.361 696.064 141.841C695.184 142.295 693.997 142.521 692.504 142.521C690.53 142.521 688.97 142.041 687.824 141.081C686.704 140.095 686.144 138.735 686.144 137.001V135.921C686.144 134.428 686.717 133.188 687.864 132.201C689.01 131.215 690.93 130.721 693.624 130.721H698.144V129.721C698.144 128.441 697.89 127.508 697.384 126.921C696.904 126.308 696.05 126.001 694.824 126.001C693.73 126.001 692.93 126.228 692.424 126.681C691.917 127.135 691.61 127.721 691.504 128.441H686.744C687.01 126.468 687.81 124.868 689.144 123.641C690.477 122.415 692.477 121.801 695.144 121.801C697.65 121.801 699.584 122.415 700.944 123.641C702.304 124.841 702.984 126.708 702.984 129.241V142.121H698.144ZM713.512 131.201V142.121H708.712V122.201H713.512V125.681C714.179 124.348 715.032 123.375 716.072 122.761C717.112 122.121 718.285 121.801 719.592 121.801C721.645 121.801 723.245 122.401 724.392 123.601C725.565 124.801 726.152 126.575 726.152 128.921V142.121H721.312V130.241C721.312 128.801 721.032 127.735 720.472 127.041C719.939 126.348 719.032 126.001 717.752 126.001C716.979 126.001 716.272 126.201 715.632 126.601C714.992 126.975 714.472 127.548 714.072 128.321C713.699 129.068 713.512 130.028 713.512 131.201ZM740.035 126.001C738.648 126.001 737.622 126.468 736.955 127.401C736.288 128.308 735.955 129.508 735.955 131.001V133.321C735.955 134.868 736.288 136.095 736.955 137.001C737.648 137.881 738.715 138.321 740.155 138.321C741.462 138.321 742.488 137.908 743.235 137.081C743.982 136.228 744.355 134.975 744.355 133.321V130.881C744.355 129.388 743.968 128.201 743.195 127.321C742.422 126.441 741.368 126.001 740.035 126.001ZM744.355 142.121V139.241C743.822 140.335 743.062 141.161 742.075 141.721C741.115 142.255 739.968 142.521 738.635 142.521C737.195 142.521 735.902 142.188 734.755 141.521C733.608 140.828 732.688 139.815 731.995 138.481C731.328 137.148 730.995 135.508 730.995 133.561V130.801C730.995 128.828 731.328 127.175 731.995 125.841C732.688 124.508 733.608 123.508 734.755 122.841C735.902 122.148 737.195 121.801 738.635 121.801C740.048 121.801 741.222 122.095 742.155 122.681C743.115 123.241 743.848 124.041 744.355 125.081V112.921H749.195V142.121H744.355ZM782.498 136.121C782.204 138.148 781.298 139.721 779.778 140.841C778.284 141.961 776.338 142.521 773.938 142.521C771.271 142.521 769.111 141.761 767.458 140.241C765.831 138.721 765.018 136.495 765.018 133.561V130.761C765.018 127.855 765.831 125.641 767.458 124.121C769.084 122.575 771.271 121.801 774.018 121.801C776.658 121.801 778.751 122.588 780.298 124.161C781.844 125.735 782.618 128.015 782.618 131.001V133.281H769.978C770.004 133.548 770.031 133.815 770.058 134.081C770.084 134.321 770.111 134.575 770.138 134.841C770.298 135.988 770.711 136.881 771.378 137.521C772.044 138.161 772.991 138.481 774.218 138.481C774.298 138.481 774.364 138.481 774.418 138.481C774.498 138.455 774.564 138.441 774.618 138.441C775.551 138.388 776.271 138.148 776.778 137.721C777.284 137.268 777.618 136.735 777.778 136.121H782.498ZM769.978 130.201L770.458 130.321H777.978C777.898 128.775 777.551 127.641 776.938 126.921C776.324 126.175 775.351 125.801 774.018 125.801C772.711 125.801 771.724 126.201 771.058 127.001C770.418 127.775 770.058 128.841 769.978 130.201ZM792.457 131.201V142.121H787.657V122.201H792.457V125.681C793.124 124.348 793.977 123.375 795.017 122.761C796.057 122.121 797.231 121.801 798.537 121.801C800.591 121.801 802.191 122.401 803.337 123.601C804.511 124.801 805.097 126.575 805.097 128.921V142.121H800.257V130.241C800.257 128.801 799.977 127.735 799.417 127.041C798.884 126.348 797.977 126.001 796.697 126.001C795.924 126.001 795.217 126.201 794.577 126.601C793.937 126.975 793.417 127.548 793.017 128.321C792.644 129.068 792.457 130.028 792.457 131.201ZM818.9 126.001C817.514 126.001 816.487 126.468 815.82 127.401C815.154 128.308 814.82 129.508 814.82 131.001V132.921C814.82 134.468 815.154 135.695 815.82 136.601C816.514 137.481 817.58 137.921 819.02 137.921C820.327 137.921 821.354 137.508 822.1 136.681C822.847 135.828 823.22 134.575 823.22 132.921V130.881C823.22 129.388 822.834 128.201 822.06 127.321C821.287 126.441 820.234 126.001 818.9 126.001ZM819.1 150.521C816.407 150.521 814.3 149.935 812.78 148.761C811.26 147.615 810.38 146.068 810.14 144.121H814.86C815.047 144.815 815.447 145.348 816.06 145.721C816.674 146.121 817.62 146.321 818.9 146.321C820.394 146.321 821.487 145.935 822.18 145.161C822.874 144.388 823.22 143.148 823.22 141.441V138.841C822.714 139.935 821.967 140.761 820.98 141.321C819.994 141.855 818.847 142.121 817.54 142.121C816.074 142.121 814.767 141.788 813.62 141.121C812.474 140.428 811.554 139.415 810.86 138.081C810.194 136.748 809.86 135.108 809.86 133.161V130.801C809.86 128.828 810.194 127.175 810.86 125.841C811.554 124.508 812.474 123.508 813.62 122.841C814.767 122.148 816.074 121.801 817.54 121.801C818.927 121.801 820.087 122.095 821.02 122.681C821.98 123.241 822.714 124.041 823.22 125.081V122.201H828.06V141.441C828.06 143.468 827.7 145.148 826.98 146.481C826.26 147.815 825.234 148.815 823.9 149.481C822.567 150.175 820.967 150.521 819.1 150.521ZM840.942 139.081C842.222 139.081 843.195 138.748 843.862 138.081C844.555 137.388 844.902 136.241 844.902 134.641V133.521H841.022C839.822 133.521 838.968 133.735 838.462 134.161C837.982 134.588 837.742 135.175 837.742 135.921V136.561C837.742 137.388 837.995 138.015 838.502 138.441C839.008 138.868 839.822 139.081 840.942 139.081ZM844.902 142.121V139.681C844.422 140.641 843.728 141.361 842.822 141.841C841.942 142.295 840.755 142.521 839.262 142.521C837.288 142.521 835.728 142.041 834.582 141.081C833.462 140.095 832.902 138.735 832.902 137.001V135.921C832.902 134.428 833.475 133.188 834.622 132.201C835.768 131.215 837.688 130.721 840.382 130.721H844.902V129.721C844.902 128.441 844.648 127.508 844.142 126.921C843.662 126.308 842.808 126.001 841.582 126.001C840.488 126.001 839.688 126.228 839.182 126.681C838.675 127.135 838.368 127.721 838.262 128.441H833.502C833.768 126.468 834.568 124.868 835.902 123.641C837.235 122.415 839.235 121.801 841.902 121.801C844.408 121.801 846.342 122.415 847.702 123.641C849.062 124.841 849.742 126.708 849.742 129.241V142.121H844.902ZM862.963 126.001C861.576 126.001 860.549 126.468 859.883 127.401C859.216 128.308 858.883 129.508 858.883 131.001V132.921C858.883 134.468 859.216 135.695 859.883 136.601C860.576 137.481 861.643 137.921 863.083 137.921C864.389 137.921 865.416 137.508 866.163 136.681C866.909 135.828 867.283 134.575 867.283 132.921V130.881C867.283 129.388 866.896 128.201 866.123 127.321C865.349 126.441 864.296 126.001 862.963 126.001ZM863.163 150.521C860.469 150.521 858.363 149.935 856.843 148.761C855.323 147.615 854.443 146.068 854.203 144.121H858.923C859.109 144.815 859.509 145.348 860.123 145.721C860.736 146.121 861.683 146.321 862.963 146.321C864.456 146.321 865.549 145.935 866.243 145.161C866.936 144.388 867.283 143.148 867.283 141.441V138.841C866.776 139.935 866.029 140.761 865.043 141.321C864.056 141.855 862.909 142.121 861.603 142.121C860.136 142.121 858.829 141.788 857.683 141.121C856.536 140.428 855.616 139.415 854.923 138.081C854.256 136.748 853.923 135.108 853.923 133.161V130.801C853.923 128.828 854.256 127.175 854.923 125.841C855.616 124.508 856.536 123.508 857.683 122.841C858.829 122.148 860.136 121.801 861.603 121.801C862.989 121.801 864.149 122.095 865.083 122.681C866.043 123.241 866.776 124.041 867.283 125.081V122.201H872.123V141.441C872.123 143.468 871.763 145.148 871.043 146.481C870.323 147.815 869.296 148.815 867.963 149.481C866.629 150.175 865.029 150.521 863.163 150.521ZM894.724 136.121C894.431 138.148 893.524 139.721 892.004 140.841C890.511 141.961 888.564 142.521 886.164 142.521C883.497 142.521 881.337 141.761 879.684 140.241C878.057 138.721 877.244 136.495 877.244 133.561V130.761C877.244 127.855 878.057 125.641 879.684 124.121C881.311 122.575 883.497 121.801 886.244 121.801C888.884 121.801 890.977 122.588 892.524 124.161C894.071 125.735 894.844 128.015 894.844 131.001V133.281H882.204C882.231 133.548 882.257 133.815 882.284 134.081C882.311 134.321 882.337 134.575 882.364 134.841C882.524 135.988 882.937 136.881 883.604 137.521C884.271 138.161 885.217 138.481 886.444 138.481C886.524 138.481 886.591 138.481 886.644 138.481C886.724 138.455 886.791 138.441 886.844 138.441C887.777 138.388 888.497 138.148 889.004 137.721C889.511 137.268 889.844 136.735 890.004 136.121H894.724ZM882.204 130.201L882.684 130.321H890.204C890.124 128.775 889.777 127.641 889.164 126.921C888.551 126.175 887.577 125.801 886.244 125.801C884.937 125.801 883.951 126.201 883.284 127.001C882.644 127.775 882.284 128.841 882.204 130.201ZM912.987 118.881C912.08 118.881 911.347 118.628 910.787 118.121C910.227 117.615 909.947 116.961 909.947 116.161C909.947 115.335 910.227 114.668 910.787 114.161C911.347 113.655 912.08 113.401 912.987 113.401C913.894 113.401 914.627 113.655 915.187 114.161C915.747 114.668 916.027 115.335 916.027 116.161C916.027 116.961 915.747 117.615 915.187 118.121C914.627 118.628 913.894 118.881 912.987 118.881ZM910.587 142.121V122.201H915.387V142.121H910.587ZM926.285 131.201V142.121H921.485V122.201H926.285V125.681C926.952 124.348 927.805 123.375 928.845 122.761C929.885 122.121 931.059 121.801 932.365 121.801C934.419 121.801 936.019 122.401 937.165 123.601C938.339 124.801 938.925 126.575 938.925 128.921V142.121H934.085V130.241C934.085 128.801 933.805 127.735 933.245 127.041C932.712 126.348 931.805 126.001 930.525 126.001C929.752 126.001 929.045 126.201 928.405 126.601C927.765 126.975 927.245 127.548 926.845 128.321C926.472 129.068 926.285 130.028 926.285 131.201ZM960.192 131.201V142.121H955.392V122.201H960.192V125.681C960.832 124.348 961.658 123.375 962.672 122.761C963.685 122.121 964.832 121.801 966.112 121.801C967.578 121.801 968.792 122.121 969.752 122.761C970.712 123.375 971.405 124.321 971.832 125.601C972.552 124.295 973.458 123.335 974.552 122.721C975.672 122.108 976.925 121.801 978.312 121.801C980.285 121.801 981.818 122.401 982.912 123.601C984.032 124.801 984.592 126.575 984.592 128.921V142.121H979.752V130.241C979.752 128.801 979.498 127.735 978.992 127.041C978.485 126.348 977.645 126.001 976.472 126.001C975.725 126.001 975.045 126.201 974.432 126.601C973.818 126.975 973.325 127.548 972.952 128.321C972.578 129.068 972.392 130.028 972.392 131.201V142.121H967.552V130.241C967.552 128.801 967.298 127.735 966.792 127.041C966.285 126.348 965.445 126.001 964.272 126.001C963.525 126.001 962.845 126.201 962.232 126.601C961.645 126.975 961.152 127.548 960.752 128.321C960.378 129.068 960.192 130.028 960.192 131.201ZM1006.91 136.121C1006.62 138.148 1005.71 139.721 1004.19 140.841C1002.7 141.961 1000.75 142.521 998.352 142.521C995.685 142.521 993.525 141.761 991.872 140.241C990.245 138.721 989.432 136.495 989.432 133.561V130.761C989.432 127.855 990.245 125.641 991.872 124.121C993.498 122.575 995.685 121.801 998.432 121.801C1001.07 121.801 1003.16 122.588 1004.71 124.161C1006.26 125.735 1007.03 128.015 1007.03 131.001V133.281H994.392C994.418 133.548 994.445 133.815 994.472 134.081C994.498 134.321 994.525 134.575 994.552 134.841C994.712 135.988 995.125 136.881 995.792 137.521C996.458 138.161 997.405 138.481 998.632 138.481C998.712 138.481 998.778 138.481 998.832 138.481C998.912 138.455 998.978 138.441 999.032 138.441C999.965 138.388 1000.68 138.148 1001.19 137.721C1001.7 137.268 1002.03 136.735 1002.19 136.121H1006.91ZM994.392 130.201L994.872 130.321H1002.39C1002.31 128.775 1001.96 127.641 1001.35 126.921C1000.74 126.175 999.765 125.801 998.432 125.801C997.125 125.801 996.138 126.201 995.472 127.001C994.832 127.775 994.472 128.841 994.392 130.201ZM1028.59 136.121C1028.3 138.148 1027.39 139.721 1025.87 140.841C1024.38 141.961 1022.43 142.521 1020.03 142.521C1017.36 142.521 1015.2 141.761 1013.55 140.241C1011.92 138.721 1011.11 136.495 1011.11 133.561V130.761C1011.11 127.855 1011.92 125.641 1013.55 124.121C1015.18 122.575 1017.36 121.801 1020.11 121.801C1022.75 121.801 1024.84 122.588 1026.39 124.161C1027.94 125.735 1028.71 128.015 1028.71 131.001V133.281H1016.07C1016.1 133.548 1016.12 133.815 1016.15 134.081C1016.18 134.321 1016.2 134.575 1016.23 134.841C1016.39 135.988 1016.8 136.881 1017.47 137.521C1018.14 138.161 1019.08 138.481 1020.31 138.481C1020.39 138.481 1020.46 138.481 1020.51 138.481C1020.59 138.455 1020.66 138.441 1020.71 138.441C1021.64 138.388 1022.36 138.148 1022.87 137.721C1023.38 137.268 1023.71 136.735 1023.87 136.121H1028.59ZM1016.07 130.201L1016.55 130.321H1024.07C1023.99 128.775 1023.64 127.641 1023.03 126.921C1022.42 126.175 1021.44 125.801 1020.11 125.801C1018.8 125.801 1017.82 126.201 1017.15 127.001C1016.51 127.775 1016.15 128.841 1016.07 130.201ZM1045 138.281V142.321H1041.48C1039.02 142.321 1037.24 141.761 1036.12 140.641C1035 139.521 1034.44 137.695 1034.44 135.161V126.281H1031.48V122.201H1034.44V116.441H1039.28V122.201H1045V126.281H1039.28V135.161C1039.28 136.095 1039.5 136.855 1039.96 137.441C1040.41 138.001 1041.25 138.281 1042.48 138.281H1045ZM1052.01 118.881C1051.1 118.881 1050.37 118.628 1049.81 118.121C1049.25 117.615 1048.97 116.961 1048.97 116.161C1048.97 115.335 1049.25 114.668 1049.81 114.161C1050.37 113.655 1051.1 113.401 1052.01 113.401C1052.92 113.401 1053.65 113.655 1054.21 114.161C1054.77 114.668 1055.05 115.335 1055.05 116.161C1055.05 116.961 1054.77 117.615 1054.21 118.121C1053.65 118.628 1052.92 118.881 1052.01 118.881ZM1049.61 142.121V122.201H1054.41V142.121H1049.61ZM1065.31 131.201V142.121H1060.51V122.201H1065.31V125.681C1065.98 124.348 1066.83 123.375 1067.87 122.761C1068.91 122.121 1070.08 121.801 1071.39 121.801C1073.44 121.801 1075.04 122.401 1076.19 123.601C1077.36 124.801 1077.95 126.575 1077.95 128.921V142.121H1073.11V130.241C1073.11 128.801 1072.83 127.735 1072.27 127.041C1071.74 126.348 1070.83 126.001 1069.55 126.001C1068.78 126.001 1068.07 126.201 1067.43 126.601C1066.79 126.975 1066.27 127.548 1065.87 128.321C1065.5 129.068 1065.31 130.028 1065.31 131.201ZM1091.75 126.001C1090.37 126.001 1089.34 126.468 1088.67 127.401C1088.01 128.308 1087.67 129.508 1087.67 131.001V132.921C1087.67 134.468 1088.01 135.695 1088.67 136.601C1089.37 137.481 1090.43 137.921 1091.87 137.921C1093.18 137.921 1094.21 137.508 1094.95 136.681C1095.7 135.828 1096.07 134.575 1096.07 132.921V130.881C1096.07 129.388 1095.69 128.201 1094.91 127.321C1094.14 126.441 1093.09 126.001 1091.75 126.001ZM1091.95 150.521C1089.26 150.521 1087.15 149.935 1085.63 148.761C1084.11 147.615 1083.23 146.068 1082.99 144.121H1087.71C1087.9 144.815 1088.3 145.348 1088.91 145.721C1089.53 146.121 1090.47 146.321 1091.75 146.321C1093.25 146.321 1094.34 145.935 1095.03 145.161C1095.73 144.388 1096.07 143.148 1096.07 141.441V138.841C1095.57 139.935 1094.82 140.761 1093.83 141.321C1092.85 141.855 1091.7 142.121 1090.39 142.121C1088.93 142.121 1087.62 141.788 1086.47 141.121C1085.33 140.428 1084.41 139.415 1083.71 138.081C1083.05 136.748 1082.71 135.108 1082.71 133.161V130.801C1082.71 128.828 1083.05 127.175 1083.71 125.841C1084.41 124.508 1085.33 123.508 1086.47 122.841C1087.62 122.148 1088.93 121.801 1090.39 121.801C1091.78 121.801 1092.94 122.095 1093.87 122.681C1094.83 123.241 1095.57 124.041 1096.07 125.081V122.201H1100.91V141.441C1100.91 143.468 1100.55 145.148 1099.83 146.481C1099.11 147.815 1098.09 148.815 1096.75 149.481C1095.42 150.175 1093.82 150.521 1091.95 150.521ZM1113.95 125.481C1112.89 125.481 1112.13 125.668 1111.67 126.041C1111.25 126.415 1111.03 126.961 1111.03 127.681C1111.03 128.401 1111.23 128.921 1111.63 129.241C1112.03 129.561 1112.7 129.828 1113.63 130.041L1116.19 130.521C1117.79 130.841 1119.06 131.241 1119.99 131.721C1120.95 132.175 1121.63 132.775 1122.03 133.521C1122.46 134.241 1122.67 135.188 1122.67 136.361C1122.67 138.415 1121.98 139.961 1120.59 141.001C1119.21 142.015 1117.13 142.521 1114.35 142.521C1111.74 142.521 1109.7 141.988 1108.23 140.921C1106.79 139.828 1105.94 138.135 1105.67 135.841H1110.23C1110.42 136.881 1110.82 137.655 1111.43 138.161C1112.07 138.641 1113.07 138.881 1114.43 138.881C1115.69 138.881 1116.57 138.681 1117.07 138.281C1117.58 137.881 1117.83 137.321 1117.83 136.601C1117.83 136.095 1117.74 135.708 1117.55 135.441C1117.39 135.148 1117.11 134.908 1116.71 134.721C1116.31 134.535 1115.74 134.375 1114.99 134.241L1112.03 133.681C1110.11 133.335 1108.66 132.721 1107.67 131.841C1106.69 130.961 1106.19 129.641 1106.19 127.881C1106.19 126.015 1106.83 124.535 1108.11 123.441C1109.39 122.348 1111.33 121.801 1113.91 121.801C1116.71 121.801 1118.77 122.361 1120.07 123.481C1121.41 124.601 1122.13 126.215 1122.23 128.321H1117.47C1117.37 127.361 1117.05 126.655 1116.51 126.201C1115.98 125.721 1115.13 125.481 1113.95 125.481Z" fill="#222222"/>
<defs>
<clipPath id="clip0_324_74">
<rect width="117.512" height="92.365" rx="8.17475" transform="matrix(-1 0 0 1 902.698 218.525)" fill="white"/>
</clipPath>
<clipPath id="clip1_324_74">
<rect width="117.512" height="89.8181" fill="white" transform="matrix(-1 0 0 1 902.698 335.226)"/>
</clipPath>
<clipPath id="clip2_324_74">
<rect width="117.512" height="89.8181" fill="white" transform="matrix(-1 0 0 1 902.698 449.381)"/>
</clipPath>
<clipPath id="clip3_324_74">
<rect width="302.174" height="230.487" fill="white" transform="translate(410.827 299.139)"/>
</clipPath>
</defs>
</svg>
