<svg width="800" height="600" viewBox="0 0 800 600" fill="none" xmlns="http://www.w3.org/2000/svg">
<rect x="568" y="104" width="160" height="119.512" rx="8" fill="#F5F5F5"/>
<path fill-rule="evenodd" clip-rule="evenodd" d="M619.421 161.88C615.873 175.32 611.249 205.53 615.968 210.269H645.82C645.824 210.214 645.826 210.16 645.829 210.106C656.894 208.847 665.5 199.205 665.5 187.496V165.276C665.5 152.713 655.591 142.528 643.368 142.528H641.309C630.208 142.528 621.017 150.927 619.421 161.88Z" fill="#191847"/>
<path fill-rule="evenodd" clip-rule="evenodd" d="M653.906 183.253C658.65 177.53 661.86 170.517 661.324 162.658C659.778 140.015 629.112 144.996 623.147 156.424C617.181 167.853 617.89 196.842 625.6 198.885C628.674 199.699 635.224 197.704 641.89 193.574L637.706 224H662.412L653.906 183.253Z" fill="#B28B67"/>
<path fill-rule="evenodd" clip-rule="evenodd" d="M647.228 179.428C646.09 191.996 646.546 206.348 649.938 209.755H679.791C681.454 180.051 665.379 191.554 665.379 163.586C664.377 162.58 663.43 161.584 662.493 160.725L662.526 159.902C657.357 149.024 650.799 143.586 642.851 143.586C630.931 143.586 627.168 149.287 623.965 154.127C626.36 162.576 635.657 163.829 643.918 169.096C644.891 168.282 646.133 167.795 647.485 167.795C650.612 167.795 653.147 170.4 653.147 173.614C653.147 176.828 650.612 179.434 647.485 179.434C647.399 179.434 647.313 179.432 647.228 179.428Z" fill="#191847"/>
<rect x="568" y="240" width="160" height="119.941" rx="8" fill="#F5F5F5"/>
<path fill-rule="evenodd" clip-rule="evenodd" d="M653.906 320.377C658.65 314.812 661.86 307.992 661.324 300.35C659.778 278.33 629.112 283.174 623.147 294.288C617.181 305.401 617.89 333.591 625.6 335.577C628.674 336.369 635.224 334.429 641.89 330.413L637.706 360H662.412L653.906 320.377Z" fill="#B28B67"/>
<path fill-rule="evenodd" clip-rule="evenodd" d="M672.095 293.02C672.893 292.23 673.328 291.101 673.705 290.03C674.096 288.917 674.476 287.793 674.735 286.635C675.254 284.321 675.259 281.659 673.607 279.862C672.283 278.421 670.295 277.775 668.461 277.634C667.238 277.541 665.983 277.712 664.812 278.097C663.649 278.479 662.647 279.24 661.52 279.712C661.477 277.218 661.05 274.609 659.784 272.479C658.566 270.43 656.624 269.281 654.412 268.976C652.142 268.664 649.9 269.195 647.868 270.294C647.359 270.569 646.855 270.857 646.373 271.183C645.969 271.456 645.549 271.785 645.075 271.896C644.547 272.02 644.285 271.715 643.942 271.33C643.539 270.878 643.085 270.48 642.605 270.128C640.483 268.569 637.698 267.927 635.24 268.862C634.107 269.293 633.005 270.024 632.236 271.032C631.551 271.93 631.063 273.355 630.117 273.981C629.716 274.247 629.432 273.895 629.067 273.634C628.518 273.243 627.995 272.812 627.439 272.432C626.659 271.898 625.814 271.498 624.91 271.289C623.586 270.983 621.756 271.054 621.377 272.788C621.235 273.439 621.344 274.136 621.39 274.792C621.453 275.692 621.519 276.593 621.597 277.493C621.656 278.176 621.731 278.835 621.86 279.506C621.929 279.863 622.144 280.53 621.991 280.888C621.799 281.335 620.915 281.081 620.537 281.097C619.79 281.127 619.041 281.258 618.35 281.577C617.815 281.824 617.253 282.188 617.027 282.801C616.888 283.177 616.925 283.564 616.99 283.951C617.069 284.416 616.979 284.662 616.92 285.131C615.918 284.638 612.443 283.541 612.006 285.337C611.861 285.935 612.192 286.611 612.445 287.116C612.888 288 613.47 288.809 614.064 289.58C615.304 291.188 616.785 292.576 618.377 293.762C616.511 294.591 616.024 297.037 617.64 298.494C618.353 299.138 619.312 299.281 620.212 299.24C620.542 299.225 621.016 299.098 621.276 299.155C621.415 299.186 621.564 299.304 621.758 299.318C623.027 299.405 624.461 299.099 625.702 298.817C627.914 298.315 630.009 297.268 631.719 295.672C632.157 295.263 632.52 295.028 633.11 295.034C633.628 295.039 634.135 295.181 634.652 295.194C636.02 295.229 637.253 294.56 638.524 294.116C638.601 295.831 639.09 297.719 639.792 299.262C640.364 300.52 641.559 300.703 642.734 300.814C646.49 301.167 650.259 300.773 654.02 300.778C650.379 301.6 646.617 301.939 643.009 302.907C641.379 303.345 642.624 304.443 643.321 305.205C644.47 306.459 645.323 308.013 645.915 309.65C647.696 307.33 650.844 305.801 653.633 306.514C656.714 307.301 658.884 311.466 656.913 314.46C655.769 316.198 653.704 316.869 651.985 317.616C653.326 319.01 653.65 321.068 654.457 322.801C654.855 323.656 655.414 324.623 656.304 324.921C656.633 325.031 657.02 325.04 657.279 325.309C657.601 325.641 657.678 326.012 658.089 326.298C659.729 327.438 662.291 327.35 663.745 325.862C665.059 324.517 664.717 322.389 663.619 321.025C665.367 320.297 668.551 319.36 667.857 316.639C671.644 316.388 680.839 310.248 675.756 305.762C678.545 304.187 681.108 300.336 679.316 296.941C677.937 294.327 674.728 293.159 672.095 293.02Z" fill="#191847"/>
<rect x="568" y="376" width="160" height="119.941" rx="8" fill="#F5F5F5"/>
<path fill-rule="evenodd" clip-rule="evenodd" d="M653.906 456.377C658.65 450.812 661.86 443.992 661.324 436.35C659.778 414.33 629.112 419.174 623.147 430.288C617.181 441.401 617.89 469.591 625.6 471.577C628.674 472.369 635.224 470.429 641.89 466.413L637.706 496H662.412L653.906 456.377Z" fill="#B28B67"/>
<path fill-rule="evenodd" clip-rule="evenodd" d="M634.042 431.899C637.395 433.774 639.781 437.286 642.653 441.894C643.353 441.619 644.115 441.468 644.912 441.468C648.323 441.468 651.088 444.232 651.088 447.641C651.088 449.372 650.376 450.937 649.228 452.058C650.657 454.074 652.258 456.18 654.094 458.354C660.943 454.246 666.037 442.276 659.497 430.72C653.871 407.573 621.988 421.94 615.855 418.036C614.514 426.436 618.838 433.209 634.042 431.899Z" fill="#191847"/>
<rect x="72" y="126" width="480" height="360" rx="16" fill="#0D45CD" fill-opacity="0.2"/>
<g clip-path="url(#clip0_264_138)">
<path fill-rule="evenodd" clip-rule="evenodd" d="M296.812 382.916C284.615 368.635 276.359 351.133 277.739 331.523C281.713 275.018 360.57 287.448 375.909 315.967C391.248 344.485 389.425 416.825 369.601 421.922C361.695 423.955 344.853 418.976 327.711 408.67L338.471 484.595H274.941L296.812 382.916Z" fill="#B28B67"/>
<path fill-rule="evenodd" clip-rule="evenodd" d="M381.906 328.772C381.277 325.075 379.739 320.97 378.498 317.473C376.898 312.964 374.477 308.899 371.813 305.068C366.797 297.855 360.779 291.342 354.135 285.936C341.999 276.062 326.55 270.366 311.358 272.216C303.687 273.15 296.241 276.068 289.904 280.926C284.178 285.314 278.67 291.775 271.256 292.239C263.188 292.744 255.793 285.641 249.323 281.255C242.028 276.31 234.267 272.706 225.741 271.305C211.458 268.96 198.039 273.773 188.196 285.462C177.72 297.901 170.106 316.142 176.985 332.624C178.264 335.687 179.909 338.27 182.269 340.411C184.435 342.374 187.741 344.462 188.619 347.599C189.552 350.933 186.766 355.234 185.686 358.242C184.139 362.553 182.868 367.077 183.32 371.762C184.062 379.455 188.909 386.8 194.028 391.857C199.236 397.003 205.647 399.954 212.494 401.314C217.066 402.222 221.739 402.723 226.385 402.382C228.692 402.213 230.728 401.574 232.963 401.065C235.136 400.571 236.351 401.147 238.195 402.336C246.761 407.86 255.971 409.997 265.862 409.175C274.21 408.482 283.831 406.464 290.641 400.759C298.204 394.423 298.053 385.685 296.273 376.35C298.159 377.282 303.375 377.859 300.258 374.144C299.023 372.673 296.69 372.074 295.106 371.209C293.261 370.201 291.388 368.899 289.955 367.255C284.171 360.619 290.013 347.113 297.283 344.887C308.085 341.58 310.503 356.817 318.214 360.758C322.647 363.024 327.285 359.927 330.606 356.764C335.056 352.528 338.088 346.915 340.706 341.203C342.863 336.499 344.869 331.729 347.067 327.049C348.094 324.863 351.647 318.685 349.863 316.213C357.599 314.674 366.216 317.881 372.879 322.087C375.633 323.825 377.732 325.742 379.201 328.811C379.516 329.469 380.201 331.423 381.061 331.504C382.663 331.653 382.064 329.701 381.906 328.772Z" fill="#191847"/>
</g>
<defs>
<clipPath id="clip0_264_138">
<rect width="360" height="274.595" fill="white" transform="translate(132 210)"/>
</clipPath>
</defs>
</svg>
