<svg width="800" height="600" viewBox="0 0 800 600" fill="none" xmlns="http://www.w3.org/2000/svg">
<g filter="url(#filter0_d_281_320)">
<rect x="196" y="120" width="383" height="360" rx="4" fill="white"/>
</g>
<rect x="219" y="169" width="32" height="32" rx="16" fill="#FCB07E"/>
<path d="M231.656 191V189.448L235.4 185.528C235.827 185.08 236.147 184.712 236.36 184.424C236.573 184.125 236.712 183.859 236.776 183.624C236.851 183.379 236.888 183.112 236.888 182.824C236.888 182.312 236.765 181.933 236.52 181.688C236.275 181.443 235.891 181.32 235.368 181.32C234.813 181.32 234.403 181.475 234.136 181.784C233.88 182.083 233.715 182.547 233.64 183.176H231.752C231.795 182.077 232.131 181.213 232.76 180.584C233.4 179.955 234.28 179.64 235.4 179.64C236.584 179.64 237.459 179.933 238.024 180.52C238.589 181.096 238.872 181.864 238.872 182.824C238.872 183.368 238.792 183.848 238.632 184.264C238.472 184.68 238.227 185.091 237.896 185.496C237.576 185.891 237.16 186.349 236.648 186.872L234.392 189.32H238.984V191H231.656Z" fill="#222222"/>
<path d="M273.424 180.16C272.539 180.16 271.765 180 271.104 179.68C270.443 179.36 269.931 178.885 269.568 178.256C269.216 177.627 269.04 176.853 269.04 175.936V172.88C269.04 171.963 269.216 171.189 269.568 170.56C269.931 169.931 270.432 169.456 271.072 169.136C271.712 168.805 272.448 168.64 273.28 168.64C274.144 168.64 274.869 168.8 275.456 169.12C276.043 169.429 276.496 169.867 276.816 170.432C277.147 170.987 277.339 171.632 277.392 172.368H275.488C275.413 171.696 275.2 171.189 274.848 170.848C274.507 170.496 274 170.32 273.328 170.32C272.571 170.32 271.995 170.56 271.6 171.04C271.205 171.509 271.008 172.144 271.008 172.944V175.888C271.008 176.667 271.2 177.296 271.584 177.776C271.979 178.245 272.555 178.48 273.312 178.48C273.984 178.48 274.501 178.315 274.864 177.984C275.227 177.653 275.435 177.136 275.488 176.432H277.392C277.339 177.616 276.949 178.533 276.224 179.184C275.509 179.835 274.576 180.16 273.424 180.16ZM282.526 180.16C281.427 180.16 280.547 179.856 279.886 179.248C279.225 178.64 278.894 177.749 278.894 176.576V175.456C278.894 174.293 279.225 173.408 279.886 172.8C280.547 172.181 281.427 171.872 282.526 171.872C283.635 171.872 284.521 172.181 285.182 172.8C285.843 173.408 286.174 174.293 286.174 175.456V176.576C286.174 177.749 285.843 178.64 285.182 179.248C284.521 179.856 283.635 180.16 282.526 180.16ZM282.526 173.552C281.961 173.552 281.545 173.733 281.278 174.096C281.011 174.448 280.878 174.923 280.878 175.52V176.512C280.878 177.109 281.011 177.589 281.278 177.952C281.545 178.304 281.961 178.48 282.526 178.48C283.102 178.48 283.523 178.304 283.79 177.952C284.067 177.589 284.206 177.109 284.206 176.512V175.52C284.206 174.923 284.067 174.448 283.79 174.096C283.523 173.733 283.102 173.552 282.526 173.552ZM290.12 175.632V180H288.2V172.032H290.12V173.424C290.387 172.891 290.728 172.501 291.144 172.256C291.56 172 292.03 171.872 292.552 171.872C293.374 171.872 294.014 172.112 294.472 172.592C294.942 173.072 295.176 173.781 295.176 174.72V180H293.24V175.248C293.24 174.672 293.128 174.245 292.904 173.968C292.691 173.691 292.328 173.552 291.816 173.552C291.507 173.552 291.224 173.632 290.968 173.792C290.712 173.941 290.504 174.171 290.344 174.48C290.195 174.779 290.12 175.163 290.12 175.632ZM303.93 170.704C303.556 170.704 303.258 170.603 303.034 170.4C302.81 170.197 302.698 169.936 302.698 169.616C302.698 169.285 302.81 169.019 303.034 168.816C303.258 168.613 303.556 168.512 303.93 168.512C304.292 168.512 304.586 168.613 304.81 168.816C305.034 169.019 305.146 169.285 305.146 169.616C305.146 169.936 305.034 170.197 304.81 170.4C304.586 170.603 304.292 170.704 303.93 170.704ZM302.954 180V173.664H299.818V180H297.882V173.664H296.682V172.032H297.882V171.136C297.882 170.197 298.132 169.483 298.634 168.992C299.135 168.491 299.898 168.24 300.922 168.24H301.658V169.856H301.082C300.58 169.856 300.244 169.973 300.074 170.208C299.903 170.443 299.818 170.763 299.818 171.168V172.032H304.89V180H302.954ZM310.541 173.552C309.987 173.552 309.576 173.739 309.309 174.112C309.043 174.475 308.909 174.955 308.909 175.552V176.32C308.909 176.939 309.043 177.429 309.309 177.792C309.587 178.144 310.013 178.32 310.589 178.32C311.112 178.32 311.523 178.155 311.821 177.824C312.12 177.483 312.269 176.981 312.269 176.32V175.504C312.269 174.907 312.115 174.432 311.805 174.08C311.496 173.728 311.075 173.552 310.541 173.552ZM310.621 183.36C309.544 183.36 308.701 183.125 308.093 182.656C307.485 182.197 307.133 181.579 307.037 180.8H308.925C309 181.077 309.16 181.291 309.405 181.44C309.651 181.6 310.029 181.68 310.541 181.68C311.139 181.68 311.576 181.525 311.853 181.216C312.131 180.907 312.269 180.411 312.269 179.728V178.688C312.067 179.125 311.768 179.456 311.373 179.68C310.979 179.893 310.52 180 309.997 180C309.411 180 308.888 179.867 308.429 179.6C307.971 179.323 307.603 178.917 307.325 178.384C307.059 177.851 306.925 177.195 306.925 176.416V175.472C306.925 174.683 307.059 174.021 307.325 173.488C307.603 172.955 307.971 172.555 308.429 172.288C308.888 172.011 309.411 171.872 309.997 171.872C310.552 171.872 311.016 171.989 311.389 172.224C311.773 172.448 312.067 172.768 312.269 173.184V172.032H314.205V179.728C314.205 180.539 314.061 181.211 313.773 181.744C313.485 182.277 313.075 182.677 312.541 182.944C312.008 183.221 311.368 183.36 310.621 183.36ZM321.47 180V178.464C321.257 179.051 320.947 179.483 320.542 179.76C320.147 180.027 319.667 180.16 319.102 180.16C318.291 180.16 317.657 179.925 317.198 179.456C316.75 178.987 316.526 178.293 316.526 177.376V172.032H318.462V176.864C318.462 177.429 318.569 177.851 318.782 178.128C319.006 178.405 319.358 178.544 319.838 178.544C320.147 178.544 320.425 178.469 320.67 178.32C320.915 178.171 321.107 177.941 321.246 177.632C321.395 177.323 321.47 176.933 321.47 176.464V172.032H323.406V180H321.47ZM327.761 175.904V180H325.841V172.032H327.761V173.392C328.028 172.88 328.353 172.501 328.737 172.256C329.132 172 329.58 171.872 330.081 171.872H330.465V173.792H329.969C329.329 173.792 328.801 173.963 328.385 174.304C327.969 174.635 327.761 175.168 327.761 175.904ZM338.543 177.6C338.425 178.411 338.063 179.04 337.455 179.488C336.857 179.936 336.079 180.16 335.119 180.16C334.052 180.16 333.188 179.856 332.527 179.248C331.876 178.64 331.551 177.749 331.551 176.576V175.456C331.551 174.293 331.876 173.408 332.527 172.8C333.177 172.181 334.052 171.872 335.151 171.872C336.207 171.872 337.044 172.187 337.663 172.816C338.281 173.445 338.591 174.357 338.591 175.552V176.464H333.535C333.545 176.571 333.556 176.677 333.567 176.784C333.577 176.88 333.588 176.981 333.599 177.088C333.663 177.547 333.828 177.904 334.095 178.16C334.361 178.416 334.74 178.544 335.231 178.544C335.263 178.544 335.289 178.544 335.311 178.544C335.343 178.533 335.369 178.528 335.391 178.528C335.764 178.507 336.052 178.411 336.255 178.24C336.457 178.059 336.591 177.845 336.655 177.6H338.543ZM333.535 175.232L333.727 175.28H336.735C336.703 174.661 336.564 174.208 336.319 173.92C336.073 173.621 335.684 173.472 335.151 173.472C334.628 173.472 334.233 173.632 333.967 173.952C333.711 174.261 333.567 174.688 333.535 175.232Z" fill="#222222"/>
<path d="M272.432 191.728C271.888 191.728 271.456 191.803 271.136 191.952C270.827 192.101 270.603 192.309 270.464 192.576C270.336 192.832 270.272 193.131 270.272 193.472C270.272 193.824 270.331 194.117 270.448 194.352C270.565 194.576 270.768 194.768 271.056 194.928C271.355 195.088 271.749 195.264 272.24 195.456L273.424 195.888C274.139 196.155 274.699 196.437 275.104 196.736C275.509 197.024 275.792 197.36 275.952 197.744C276.123 198.117 276.208 198.565 276.208 199.088C276.208 200.059 275.92 200.816 275.344 201.36C274.779 201.893 273.872 202.16 272.624 202.16C271.44 202.16 270.517 201.888 269.856 201.344C269.205 200.789 268.821 199.931 268.704 198.768H269.904C270.011 199.547 270.277 200.128 270.704 200.512C271.131 200.885 271.776 201.072 272.64 201.072C273.451 201.072 274.032 200.912 274.384 200.592C274.747 200.272 274.928 199.787 274.928 199.136C274.928 198.784 274.869 198.485 274.752 198.24C274.635 197.995 274.427 197.771 274.128 197.568C273.84 197.365 273.435 197.168 272.912 196.976L271.728 196.544C271.067 196.299 270.533 196.048 270.128 195.792C269.723 195.536 269.429 195.227 269.248 194.864C269.077 194.491 268.992 194.032 268.992 193.488C268.992 192.944 269.109 192.459 269.344 192.032C269.579 191.605 269.947 191.269 270.448 191.024C270.96 190.768 271.621 190.64 272.432 190.64C273.595 190.64 274.475 190.933 275.072 191.52C275.669 192.096 275.979 192.933 276 194.032H274.8C274.757 193.253 274.555 192.677 274.192 192.304C273.829 191.92 273.243 191.728 272.432 191.728ZM284.455 199.664C284.381 200.475 284.055 201.093 283.479 201.52C282.914 201.947 282.189 202.16 281.303 202.16C280.311 202.16 279.511 201.872 278.903 201.296C278.295 200.709 277.991 199.845 277.991 198.704V197.488C277.991 196.347 278.295 195.488 278.903 194.912C279.511 194.325 280.317 194.032 281.319 194.032C282.29 194.032 283.063 194.325 283.639 194.912C284.215 195.499 284.503 196.368 284.503 197.52V198.24H279.287C279.287 198.368 279.287 198.496 279.287 198.624C279.298 198.741 279.309 198.864 279.319 198.992C279.351 199.643 279.533 200.16 279.863 200.544C280.194 200.917 280.695 201.104 281.367 201.104C281.431 201.104 281.49 201.104 281.543 201.104C281.607 201.104 281.666 201.099 281.719 201.088C282.178 201.035 282.535 200.885 282.791 200.64C283.047 200.395 283.202 200.069 283.255 199.664H284.455ZM279.287 197.328L279.383 197.44H283.319C283.287 196.629 283.117 196.032 282.807 195.648C282.498 195.264 282.002 195.072 281.319 195.072C280.637 195.072 280.13 195.28 279.799 195.696C279.469 196.101 279.298 196.645 279.287 197.328ZM290.435 201.024V202.08H289.299C288.445 202.08 287.821 201.888 287.427 201.504C287.043 201.12 286.851 200.512 286.851 199.68V195.248H285.635V194.192H286.851V191.888H288.099V194.192H290.435V195.248H288.099V199.696C288.099 200.133 288.2 200.464 288.403 200.688C288.616 200.912 288.989 201.024 289.523 201.024H290.435ZM299.813 201.072C300.517 201.072 301.034 200.859 301.365 200.432C301.706 199.995 301.877 199.413 301.877 198.688V197.52C301.877 196.784 301.706 196.203 301.365 195.776C301.034 195.339 300.512 195.12 299.797 195.12C299.146 195.12 298.634 195.328 298.261 195.744C297.888 196.16 297.701 196.773 297.701 197.584V198.72C297.701 199.445 297.893 200.021 298.277 200.448C298.661 200.864 299.173 201.072 299.813 201.072ZM300.101 202.16C299.514 202.16 299.018 202.037 298.613 201.792C298.208 201.536 297.904 201.184 297.701 200.736V205.2H296.437V194.192H297.701V195.504C297.914 195.013 298.224 194.645 298.629 194.4C299.045 194.155 299.536 194.032 300.101 194.032C300.698 194.032 301.221 194.165 301.669 194.432C302.128 194.688 302.485 195.072 302.741 195.584C303.008 196.096 303.141 196.736 303.141 197.504V198.704C303.141 199.461 303.008 200.101 302.741 200.624C302.485 201.136 302.128 201.52 301.669 201.776C301.221 202.032 300.698 202.16 300.101 202.16ZM306.685 197.632V202H305.421V194.192H306.685V195.568C306.931 195.045 307.256 194.661 307.661 194.416C308.067 194.16 308.531 194.032 309.053 194.032H309.437V195.248H309.021C308.328 195.248 307.763 195.451 307.325 195.856C306.899 196.261 306.685 196.853 306.685 197.632ZM316.955 199.664C316.881 200.475 316.555 201.093 315.979 201.52C315.414 201.947 314.689 202.16 313.803 202.16C312.811 202.16 312.011 201.872 311.403 201.296C310.795 200.709 310.491 199.845 310.491 198.704V197.488C310.491 196.347 310.795 195.488 311.403 194.912C312.011 194.325 312.817 194.032 313.819 194.032C314.79 194.032 315.563 194.325 316.139 194.912C316.715 195.499 317.003 196.368 317.003 197.52V198.24H311.787C311.787 198.368 311.787 198.496 311.787 198.624C311.798 198.741 311.809 198.864 311.819 198.992C311.851 199.643 312.033 200.16 312.363 200.544C312.694 200.917 313.195 201.104 313.867 201.104C313.931 201.104 313.99 201.104 314.043 201.104C314.107 201.104 314.166 201.099 314.219 201.088C314.678 201.035 315.035 200.885 315.291 200.64C315.547 200.395 315.702 200.069 315.755 199.664H316.955ZM311.787 197.328L311.883 197.44H315.819C315.787 196.629 315.617 196.032 315.307 195.648C314.998 195.264 314.502 195.072 313.819 195.072C313.137 195.072 312.63 195.28 312.299 195.696C311.969 196.101 311.798 196.645 311.787 197.328ZM322.615 195.248H320.615V202H319.367V195.248H318.135V194.192H319.367V192.688C319.367 191.888 319.575 191.28 319.991 190.864C320.418 190.448 321.074 190.24 321.959 190.24H322.967V191.296H322.023C321.468 191.296 321.095 191.424 320.903 191.68C320.711 191.925 320.615 192.283 320.615 192.752V194.192H322.615V195.248ZM330.19 199.664C330.115 200.475 329.79 201.093 329.214 201.52C328.648 201.947 327.923 202.16 327.038 202.16C326.046 202.16 325.246 201.872 324.638 201.296C324.03 200.709 323.726 199.845 323.726 198.704V197.488C323.726 196.347 324.03 195.488 324.638 194.912C325.246 194.325 326.051 194.032 327.054 194.032C328.024 194.032 328.798 194.325 329.374 194.912C329.95 195.499 330.238 196.368 330.238 197.52V198.24H325.022C325.022 198.368 325.022 198.496 325.022 198.624C325.032 198.741 325.043 198.864 325.054 198.992C325.086 199.643 325.267 200.16 325.598 200.544C325.928 200.917 326.43 201.104 327.102 201.104C327.166 201.104 327.224 201.104 327.278 201.104C327.342 201.104 327.4 201.099 327.454 201.088C327.912 201.035 328.27 200.885 328.526 200.64C328.782 200.395 328.936 200.069 328.99 199.664H330.19ZM325.022 197.328L325.118 197.44H329.054C329.022 196.629 328.851 196.032 328.542 195.648C328.232 195.264 327.736 195.072 327.054 195.072C326.371 195.072 325.864 195.28 325.534 195.696C325.203 196.101 325.032 196.645 325.022 197.328ZM333.732 197.632V202H332.468V194.192H333.732V195.568C333.978 195.045 334.303 194.661 334.708 194.416C335.114 194.16 335.578 194.032 336.1 194.032H336.484V195.248H336.068C335.375 195.248 334.81 195.451 334.372 195.856C333.946 196.261 333.732 196.853 333.732 197.632ZM344.002 199.664C343.927 200.475 343.602 201.093 343.026 201.52C342.461 201.947 341.735 202.16 340.85 202.16C339.858 202.16 339.058 201.872 338.45 201.296C337.842 200.709 337.538 199.845 337.538 198.704V197.488C337.538 196.347 337.842 195.488 338.45 194.912C339.058 194.325 339.863 194.032 340.866 194.032C341.837 194.032 342.61 194.325 343.186 194.912C343.762 195.499 344.05 196.368 344.05 197.52V198.24H338.834C338.834 198.368 338.834 198.496 338.834 198.624C338.845 198.741 338.855 198.864 338.866 198.992C338.898 199.643 339.079 200.16 339.41 200.544C339.741 200.917 340.242 201.104 340.914 201.104C340.978 201.104 341.037 201.104 341.09 201.104C341.154 201.104 341.213 201.099 341.266 201.088C341.725 201.035 342.082 200.885 342.338 200.64C342.594 200.395 342.749 200.069 342.802 199.664H344.002ZM338.834 197.328L338.93 197.44H342.866C342.834 196.629 342.663 196.032 342.354 195.648C342.045 195.264 341.549 195.072 340.866 195.072C340.183 195.072 339.677 195.28 339.346 195.696C339.015 196.101 338.845 196.645 338.834 197.328ZM347.545 197.552V202H346.281V194.192H347.545V195.664C347.79 195.12 348.131 194.715 348.569 194.448C349.017 194.171 349.518 194.032 350.073 194.032C350.926 194.032 351.577 194.261 352.025 194.72C352.473 195.168 352.697 195.867 352.697 196.816V202H351.449V197.072C351.449 196.411 351.31 195.92 351.033 195.6C350.755 195.28 350.297 195.12 349.657 195.12C349.273 195.12 348.921 195.216 348.601 195.408C348.281 195.6 348.025 195.877 347.833 196.24C347.641 196.592 347.545 197.029 347.545 197.552ZM358.162 201.072C358.728 201.072 359.154 200.949 359.442 200.704C359.741 200.448 359.938 200.069 360.034 199.568H361.234C361.16 200.133 360.984 200.613 360.706 201.008C360.44 201.392 360.088 201.68 359.65 201.872C359.224 202.064 358.717 202.16 358.13 202.16C357.149 202.16 356.36 201.872 355.762 201.296C355.165 200.709 354.866 199.851 354.866 198.72V197.504C354.866 196.736 355.005 196.096 355.282 195.584C355.56 195.072 355.938 194.688 356.418 194.432C356.909 194.165 357.485 194.032 358.146 194.032C359.096 194.032 359.821 194.272 360.322 194.752C360.834 195.232 361.112 195.861 361.154 196.64H359.938C359.864 196.139 359.682 195.76 359.394 195.504C359.106 195.248 358.69 195.12 358.146 195.12C357.453 195.12 356.946 195.333 356.626 195.76C356.306 196.176 356.146 196.763 356.146 197.52V198.688C356.146 199.435 356.312 200.021 356.642 200.448C356.973 200.864 357.48 201.072 358.162 201.072ZM369.221 199.664C369.146 200.475 368.821 201.093 368.245 201.52C367.68 201.947 366.954 202.16 366.069 202.16C365.077 202.16 364.277 201.872 363.669 201.296C363.061 200.709 362.757 199.845 362.757 198.704V197.488C362.757 196.347 363.061 195.488 363.669 194.912C364.277 194.325 365.082 194.032 366.085 194.032C367.056 194.032 367.829 194.325 368.405 194.912C368.981 195.499 369.269 196.368 369.269 197.52V198.24H364.053C364.053 198.368 364.053 198.496 364.053 198.624C364.064 198.741 364.074 198.864 364.085 198.992C364.117 199.643 364.298 200.16 364.629 200.544C364.96 200.917 365.461 201.104 366.133 201.104C366.197 201.104 366.256 201.104 366.309 201.104C366.373 201.104 366.432 201.099 366.485 201.088C366.944 201.035 367.301 200.885 367.557 200.64C367.813 200.395 367.968 200.069 368.021 199.664H369.221ZM364.053 197.328L364.149 197.44H368.085C368.053 196.629 367.882 196.032 367.573 195.648C367.264 195.264 366.768 195.072 366.085 195.072C365.402 195.072 364.896 195.28 364.565 195.696C364.234 196.101 364.064 196.645 364.053 197.328ZM374.028 195.008C373.462 195.008 373.057 195.109 372.812 195.312C372.566 195.515 372.444 195.813 372.444 196.208C372.444 196.571 372.55 196.837 372.764 197.008C372.977 197.179 373.334 197.323 373.836 197.44L374.844 197.664C375.441 197.792 375.921 197.947 376.284 198.128C376.646 198.299 376.902 198.523 377.052 198.8C377.212 199.067 377.292 199.419 377.292 199.856C377.292 200.603 377.036 201.173 376.524 201.568C376.022 201.963 375.27 202.16 374.268 202.16C373.254 202.16 372.476 201.947 371.932 201.52C371.388 201.093 371.068 200.421 370.972 199.504H372.156C372.22 200.101 372.422 200.533 372.764 200.8C373.105 201.067 373.617 201.2 374.299 201.2C374.918 201.2 375.361 201.088 375.628 200.864C375.905 200.64 376.044 200.331 376.044 199.936C376.044 199.659 375.996 199.445 375.9 199.296C375.814 199.136 375.66 199.008 375.436 198.912C375.212 198.816 374.892 198.72 374.476 198.624L373.372 198.4C372.646 198.251 372.102 198.016 371.74 197.696C371.377 197.376 371.196 196.891 371.196 196.24C371.196 195.579 371.425 195.045 371.884 194.64C372.342 194.235 373.057 194.032 374.028 194.032C375.062 194.032 375.825 194.251 376.316 194.688C376.806 195.115 377.073 195.728 377.116 196.528H375.916C375.862 196.005 375.686 195.621 375.388 195.376C375.1 195.131 374.646 195.008 374.028 195.008ZM385.899 201.248C386.55 201.248 387.051 201.093 387.403 200.784C387.755 200.464 387.931 199.936 387.931 199.2V198.432H385.883C385.275 198.432 384.854 198.539 384.619 198.752C384.384 198.955 384.267 199.243 384.267 199.616V199.952C384.267 200.379 384.4 200.704 384.667 200.928C384.934 201.141 385.344 201.248 385.899 201.248ZM387.931 202V200.912C387.728 201.328 387.435 201.643 387.051 201.856C386.678 202.059 386.171 202.16 385.531 202.16C384.72 202.16 384.096 201.973 383.659 201.6C383.232 201.227 383.019 200.72 383.019 200.08V199.6C383.019 199.035 383.227 198.565 383.643 198.192C384.059 197.819 384.768 197.632 385.771 197.632H387.931V196.976C387.931 196.304 387.803 195.829 387.547 195.552C387.291 195.264 386.848 195.12 386.219 195.12C385.654 195.12 385.238 195.243 384.971 195.488C384.704 195.733 384.544 196.053 384.491 196.448H383.275C383.371 195.733 383.654 195.152 384.123 194.704C384.603 194.256 385.339 194.032 386.331 194.032C387.291 194.032 388.006 194.261 388.475 194.72C388.944 195.168 389.179 195.867 389.179 196.816V202H387.931ZM394.153 195.008C393.587 195.008 393.182 195.109 392.937 195.312C392.691 195.515 392.569 195.813 392.569 196.208C392.569 196.571 392.675 196.837 392.889 197.008C393.102 197.179 393.459 197.323 393.961 197.44L394.969 197.664C395.566 197.792 396.046 197.947 396.409 198.128C396.771 198.299 397.027 198.523 397.177 198.8C397.337 199.067 397.417 199.419 397.417 199.856C397.417 200.603 397.161 201.173 396.649 201.568C396.147 201.963 395.395 202.16 394.393 202.16C393.379 202.16 392.601 201.947 392.057 201.52C391.513 201.093 391.193 200.421 391.097 199.504H392.281C392.345 200.101 392.547 200.533 392.889 200.8C393.23 201.067 393.742 201.2 394.424 201.2C395.043 201.2 395.486 201.088 395.753 200.864C396.03 200.64 396.169 200.331 396.169 199.936C396.169 199.659 396.121 199.445 396.025 199.296C395.939 199.136 395.785 199.008 395.561 198.912C395.337 198.816 395.017 198.72 394.601 198.624L393.497 198.4C392.771 198.251 392.227 198.016 391.865 197.696C391.502 197.376 391.321 196.891 391.321 196.24C391.321 195.579 391.55 195.045 392.009 194.64C392.467 194.235 393.182 194.032 394.153 194.032C395.187 194.032 395.95 194.251 396.441 194.688C396.931 195.115 397.198 195.728 397.241 196.528H396.041C395.987 196.005 395.811 195.621 395.513 195.376C395.225 195.131 394.771 195.008 394.153 195.008ZM407.016 201.072C407.72 201.072 408.237 200.859 408.568 200.432C408.909 199.995 409.08 199.413 409.08 198.688V197.52C409.08 196.784 408.909 196.203 408.568 195.776C408.237 195.339 407.715 195.12 407 195.12C406.349 195.12 405.837 195.328 405.464 195.744C405.091 196.16 404.904 196.773 404.904 197.584V198.72C404.904 199.445 405.096 200.021 405.48 200.448C405.864 200.864 406.376 201.072 407.016 201.072ZM407.304 202.16C406.717 202.16 406.221 202.037 405.816 201.792C405.411 201.536 405.107 201.184 404.904 200.736V205.2H403.64V194.192H404.904V195.504C405.117 195.013 405.427 194.645 405.832 194.4C406.248 194.155 406.739 194.032 407.304 194.032C407.901 194.032 408.424 194.165 408.872 194.432C409.331 194.688 409.688 195.072 409.944 195.584C410.211 196.096 410.344 196.736 410.344 197.504V198.704C410.344 199.461 410.211 200.101 409.944 200.624C409.688 201.136 409.331 201.52 408.872 201.776C408.424 202.032 407.901 202.16 407.304 202.16ZM418.69 199.664C418.615 200.475 418.29 201.093 417.714 201.52C417.148 201.947 416.423 202.16 415.538 202.16C414.546 202.16 413.746 201.872 413.138 201.296C412.53 200.709 412.226 199.845 412.226 198.704V197.488C412.226 196.347 412.53 195.488 413.138 194.912C413.746 194.325 414.551 194.032 415.554 194.032C416.524 194.032 417.298 194.325 417.874 194.912C418.45 195.499 418.738 196.368 418.738 197.52V198.24H413.522C413.522 198.368 413.522 198.496 413.522 198.624C413.532 198.741 413.543 198.864 413.554 198.992C413.586 199.643 413.767 200.16 414.098 200.544C414.428 200.917 414.93 201.104 415.602 201.104C415.666 201.104 415.724 201.104 415.778 201.104C415.842 201.104 415.9 201.099 415.954 201.088C416.412 201.035 416.77 200.885 417.026 200.64C417.282 200.395 417.436 200.069 417.49 199.664H418.69ZM413.522 197.328L413.618 197.44H417.554C417.522 196.629 417.351 196.032 417.042 195.648C416.732 195.264 416.236 195.072 415.554 195.072C414.871 195.072 414.364 195.28 414.034 195.696C413.703 196.101 413.532 196.645 413.522 197.328ZM422.232 197.632V202H420.968V194.192H422.232V195.568C422.478 195.045 422.803 194.661 423.208 194.416C423.614 194.16 424.078 194.032 424.6 194.032H424.984V195.248H424.568C423.875 195.248 423.31 195.451 422.872 195.856C422.446 196.261 422.232 196.853 422.232 197.632ZM430.271 205.28H429.791V204.192H430.271C430.58 204.192 430.847 204.149 431.071 204.064C431.305 203.989 431.524 203.824 431.727 203.568C431.929 203.312 432.137 202.923 432.351 202.4L432.783 201.376L429.695 194.192H431.039L433.407 199.84L435.759 194.192H437.055L433.407 202.816C433.14 203.467 432.863 203.968 432.575 204.32C432.297 204.683 431.977 204.933 431.615 205.072C431.252 205.211 430.804 205.28 430.271 205.28ZM441.304 202.16C440.291 202.16 439.48 201.872 438.872 201.296C438.264 200.709 437.96 199.845 437.96 198.704V197.488C437.96 196.347 438.264 195.488 438.872 194.912C439.48 194.325 440.291 194.032 441.304 194.032C442.317 194.032 443.128 194.325 443.736 194.912C444.355 195.488 444.664 196.347 444.664 197.488V198.704C444.664 199.845 444.355 200.709 443.736 201.296C443.128 201.872 442.317 202.16 441.304 202.16ZM441.304 195.12C440.589 195.12 440.067 195.339 439.736 195.776C439.405 196.203 439.24 196.773 439.24 197.488V198.688C439.24 199.424 439.405 200.005 439.736 200.432C440.067 200.859 440.589 201.072 441.304 201.072C442.019 201.072 442.541 200.859 442.872 200.432C443.213 200.005 443.384 199.424 443.384 198.688V197.488C443.384 196.773 443.213 196.203 442.872 195.776C442.541 195.339 442.019 195.12 441.304 195.12ZM451.772 202V200.432C451.548 201.019 451.223 201.456 450.796 201.744C450.369 202.021 449.868 202.16 449.292 202.16C448.449 202.16 447.809 201.936 447.372 201.488C446.935 201.04 446.716 200.352 446.716 199.424V194.192H447.964V199.168C447.964 199.819 448.103 200.309 448.38 200.64C448.657 200.96 449.1 201.12 449.708 201.12C450.092 201.12 450.439 201.024 450.748 200.832C451.057 200.64 451.303 200.363 451.484 200C451.676 199.637 451.772 199.2 451.772 198.688V194.192H453.036V202H451.772ZM456.92 197.632V202H455.656V194.192H456.92V195.568C457.165 195.045 457.49 194.661 457.896 194.416C458.301 194.16 458.765 194.032 459.288 194.032H459.672V195.248H459.256C458.562 195.248 457.997 195.451 457.56 195.856C457.133 196.261 456.92 196.853 456.92 197.632ZM466.654 197.552V202H465.39V194.192H466.654V195.664C466.899 195.12 467.241 194.715 467.678 194.448C468.126 194.171 468.627 194.032 469.182 194.032C470.035 194.032 470.686 194.261 471.134 194.72C471.582 195.168 471.806 195.867 471.806 196.816V202H470.558V197.072C470.558 196.411 470.419 195.92 470.142 195.6C469.865 195.28 469.406 195.12 468.766 195.12C468.382 195.12 468.03 195.216 467.71 195.408C467.39 195.6 467.134 195.877 466.942 196.24C466.75 196.592 466.654 197.029 466.654 197.552ZM480.44 199.664C480.365 200.475 480.04 201.093 479.464 201.52C478.898 201.947 478.173 202.16 477.288 202.16C476.296 202.16 475.496 201.872 474.888 201.296C474.28 200.709 473.976 199.845 473.976 198.704V197.488C473.976 196.347 474.28 195.488 474.888 194.912C475.496 194.325 476.301 194.032 477.304 194.032C478.274 194.032 479.048 194.325 479.624 194.912C480.2 195.499 480.488 196.368 480.488 197.52V198.24H475.272C475.272 198.368 475.272 198.496 475.272 198.624C475.282 198.741 475.293 198.864 475.304 198.992C475.336 199.643 475.517 200.16 475.848 200.544C476.178 200.917 476.68 201.104 477.352 201.104C477.416 201.104 477.474 201.104 477.528 201.104C477.592 201.104 477.65 201.099 477.704 201.088C478.162 201.035 478.52 200.885 478.776 200.64C479.032 200.395 479.186 200.069 479.24 199.664H480.44ZM475.272 197.328L475.368 197.44H479.304C479.272 196.629 479.101 196.032 478.792 195.648C478.482 195.264 477.986 195.072 477.304 195.072C476.621 195.072 476.114 195.28 475.784 195.696C475.453 196.101 475.282 196.645 475.272 197.328ZM488.83 199.664C488.756 200.475 488.43 201.093 487.854 201.52C487.289 201.947 486.564 202.16 485.678 202.16C484.686 202.16 483.886 201.872 483.278 201.296C482.67 200.709 482.366 199.845 482.366 198.704V197.488C482.366 196.347 482.67 195.488 483.278 194.912C483.886 194.325 484.692 194.032 485.694 194.032C486.665 194.032 487.438 194.325 488.014 194.912C488.59 195.499 488.878 196.368 488.878 197.52V198.24H483.662C483.662 198.368 483.662 198.496 483.662 198.624C483.673 198.741 483.684 198.864 483.694 198.992C483.726 199.643 483.908 200.16 484.238 200.544C484.569 200.917 485.07 201.104 485.742 201.104C485.806 201.104 485.865 201.104 485.918 201.104C485.982 201.104 486.041 201.099 486.094 201.088C486.553 201.035 486.91 200.885 487.166 200.64C487.422 200.395 487.577 200.069 487.63 199.664H488.83ZM483.662 197.328L483.758 197.44H487.694C487.662 196.629 487.492 196.032 487.182 195.648C486.873 195.264 486.377 195.072 485.694 195.072C485.012 195.072 484.505 195.28 484.174 195.696C483.844 196.101 483.673 196.645 483.662 197.328ZM494.101 195.12C493.397 195.12 492.874 195.339 492.533 195.776C492.202 196.213 492.037 196.789 492.037 197.504V198.672C492.037 199.408 492.202 199.995 492.533 200.432C492.874 200.859 493.402 201.072 494.117 201.072C494.768 201.072 495.28 200.869 495.653 200.464C496.026 200.048 496.213 199.429 496.213 198.608V197.472C496.213 196.747 496.021 196.176 495.637 195.76C495.264 195.333 494.752 195.12 494.101 195.12ZM496.213 202V200.72C496 201.2 495.685 201.563 495.269 201.808C494.853 202.043 494.368 202.16 493.813 202.16C493.216 202.16 492.688 202.032 492.229 201.776C491.77 201.52 491.413 201.136 491.157 200.624C490.901 200.101 490.773 199.461 490.773 198.704V197.504C490.773 196.736 490.901 196.096 491.157 195.584C491.413 195.072 491.77 194.688 492.229 194.432C492.688 194.165 493.216 194.032 493.813 194.032C494.4 194.032 494.896 194.16 495.301 194.416C495.706 194.661 496.01 195.008 496.213 195.456V190.32H497.461V202H496.213ZM502.606 195.008C502.04 195.008 501.635 195.109 501.39 195.312C501.144 195.515 501.022 195.813 501.022 196.208C501.022 196.571 501.128 196.837 501.342 197.008C501.555 197.179 501.912 197.323 502.414 197.44L503.422 197.664C504.019 197.792 504.499 197.947 504.862 198.128C505.224 198.299 505.48 198.523 505.63 198.8C505.79 199.067 505.87 199.419 505.87 199.856C505.87 200.603 505.614 201.173 505.102 201.568C504.6 201.963 503.848 202.16 502.846 202.16C501.832 202.16 501.054 201.947 500.51 201.52C499.966 201.093 499.646 200.421 499.55 199.504H500.734C500.798 200.101 501 200.533 501.342 200.8C501.683 201.067 502.195 201.2 502.878 201.2C503.496 201.2 503.939 201.088 504.206 200.864C504.483 200.64 504.622 200.331 504.622 199.936C504.622 199.659 504.574 199.445 504.478 199.296C504.392 199.136 504.238 199.008 504.014 198.912C503.79 198.816 503.47 198.72 503.054 198.624L501.95 198.4C501.224 198.251 500.68 198.016 500.318 197.696C499.955 197.376 499.774 196.891 499.774 196.24C499.774 195.579 500.003 195.045 500.462 194.64C500.92 194.235 501.635 194.032 502.606 194.032C503.64 194.032 504.403 194.251 504.894 194.688C505.384 195.115 505.651 195.728 505.694 196.528H504.494C504.44 196.005 504.264 195.621 503.966 195.376C503.678 195.131 503.224 195.008 502.606 195.008Z" fill="#888888"/>
<g filter="url(#filter1_d_281_320)">
<rect x="268.5" y="327.5" width="278" height="47" rx="3.5" fill="white" stroke="#EEEEEE"/>
<path d="M289.008 357H287.072V352.664L283.248 345.8H285.424L288.096 350.856L290.752 345.8H292.832L289.008 352.696V357ZM299.539 354.6C299.422 355.411 299.059 356.04 298.451 356.488C297.854 356.936 297.075 357.16 296.115 357.16C295.048 357.16 294.184 356.856 293.523 356.248C292.872 355.64 292.547 354.749 292.547 353.576V352.456C292.547 351.293 292.872 350.408 293.523 349.8C294.174 349.181 295.048 348.872 296.147 348.872C297.203 348.872 298.04 349.187 298.659 349.816C299.278 350.445 299.587 351.357 299.587 352.552V353.464H294.531C294.542 353.571 294.552 353.677 294.563 353.784C294.574 353.88 294.584 353.981 294.595 354.088C294.659 354.547 294.824 354.904 295.091 355.16C295.358 355.416 295.736 355.544 296.227 355.544C296.259 355.544 296.286 355.544 296.307 355.544C296.339 355.533 296.366 355.528 296.387 355.528C296.76 355.507 297.048 355.411 297.251 355.24C297.454 355.059 297.587 354.845 297.651 354.6H299.539ZM294.531 352.232L294.723 352.28H297.731C297.699 351.661 297.56 351.208 297.315 350.92C297.07 350.621 296.68 350.472 296.147 350.472C295.624 350.472 295.23 350.632 294.963 350.952C294.707 351.261 294.563 351.688 294.531 352.232ZM304.387 350.344C303.96 350.344 303.656 350.419 303.475 350.568C303.304 350.717 303.219 350.936 303.219 351.224C303.219 351.512 303.299 351.72 303.459 351.848C303.619 351.976 303.885 352.083 304.259 352.168L305.283 352.36C305.923 352.488 306.429 352.648 306.803 352.84C307.187 353.021 307.459 353.261 307.619 353.56C307.789 353.848 307.875 354.227 307.875 354.696C307.875 355.517 307.597 356.136 307.043 356.552C306.488 356.957 305.656 357.16 304.547 357.16C303.501 357.16 302.685 356.947 302.099 356.52C301.523 356.083 301.181 355.405 301.075 354.488H302.899C302.973 354.904 303.133 355.213 303.379 355.416C303.635 355.608 304.035 355.704 304.579 355.704C305.08 355.704 305.432 355.624 305.635 355.464C305.837 355.304 305.939 355.08 305.939 354.792C305.939 354.589 305.901 354.435 305.827 354.328C305.763 354.211 305.651 354.115 305.491 354.04C305.331 353.965 305.101 353.901 304.803 353.848L303.619 353.624C302.851 353.485 302.269 353.24 301.875 352.888C301.48 352.536 301.283 352.008 301.283 351.304C301.283 350.557 301.539 349.965 302.051 349.528C302.563 349.091 303.336 348.872 304.371 348.872C305.491 348.872 306.312 349.096 306.835 349.544C307.368 349.992 307.656 350.637 307.699 351.48H305.795C305.752 351.096 305.624 350.813 305.411 350.632C305.197 350.44 304.856 350.344 304.387 350.344Z" fill="#222222"/>
</g>
<g filter="url(#filter2_d_281_320)">
<rect x="268.5" y="246.5" width="278" height="47" rx="3.5" fill="white" stroke="#EEEEEE"/>
<path d="M284.586 276.256C283.423 276.256 282.527 275.979 281.898 275.424C281.279 274.869 280.949 274.085 280.906 273.072H282.794C282.847 273.563 283.023 273.936 283.322 274.192C283.621 274.448 284.021 274.576 284.522 274.576C285.045 274.576 285.471 274.437 285.802 274.16C286.133 273.883 286.298 273.472 286.298 272.928V272.24C286.298 271.632 286.122 271.184 285.77 270.896C285.429 270.608 284.911 270.464 284.218 270.464H281.402V264.8H287.626V266.48H283.258V268.784H284.25C285.573 268.784 286.57 269.061 287.242 269.616C287.925 270.171 288.266 271.024 288.266 272.176V272.992C288.266 273.632 288.117 274.197 287.818 274.688C287.519 275.179 287.093 275.563 286.538 275.84C285.994 276.117 285.343 276.256 284.586 276.256ZM296.505 271.632V276H294.585V268.032H296.505V269.424C296.761 268.891 297.092 268.501 297.497 268.256C297.903 268 298.361 267.872 298.873 267.872C299.46 267.872 299.945 268 300.329 268.256C300.713 268.501 300.991 268.88 301.161 269.392C301.449 268.869 301.812 268.485 302.249 268.24C302.697 267.995 303.199 267.872 303.753 267.872C304.543 267.872 305.156 268.112 305.593 268.592C306.041 269.072 306.265 269.781 306.265 270.72V276H304.329V271.248C304.329 270.672 304.228 270.245 304.025 269.968C303.823 269.691 303.487 269.552 303.017 269.552C302.719 269.552 302.447 269.632 302.201 269.792C301.956 269.941 301.759 270.171 301.609 270.48C301.46 270.779 301.385 271.163 301.385 271.632V276H299.449V271.248C299.449 270.672 299.348 270.245 299.145 269.968C298.943 269.691 298.607 269.552 298.137 269.552C297.839 269.552 297.567 269.632 297.321 269.792C297.087 269.941 296.889 270.171 296.729 270.48C296.58 270.779 296.505 271.163 296.505 271.632ZM309.545 266.704C309.183 266.704 308.889 266.603 308.665 266.4C308.441 266.197 308.329 265.936 308.329 265.616C308.329 265.285 308.441 265.019 308.665 264.816C308.889 264.613 309.183 264.512 309.545 264.512C309.908 264.512 310.201 264.613 310.425 264.816C310.649 265.019 310.761 265.285 310.761 265.616C310.761 265.936 310.649 266.197 310.425 266.4C310.201 266.603 309.908 266.704 309.545 266.704ZM308.585 276V268.032H310.505V276H308.585ZM314.865 271.632V276H312.945V268.032H314.865V269.424C315.131 268.891 315.473 268.501 315.889 268.256C316.305 268 316.774 267.872 317.297 267.872C318.118 267.872 318.758 268.112 319.217 268.592C319.686 269.072 319.921 269.781 319.921 270.72V276H317.985V271.248C317.985 270.672 317.873 270.245 317.649 269.968C317.435 269.691 317.073 269.552 316.561 269.552C316.251 269.552 315.969 269.632 315.713 269.792C315.457 269.941 315.249 270.171 315.089 270.48C314.939 270.779 314.865 271.163 314.865 271.632ZM325.01 269.344C324.583 269.344 324.279 269.419 324.098 269.568C323.927 269.717 323.842 269.936 323.842 270.224C323.842 270.512 323.922 270.72 324.082 270.848C324.242 270.976 324.509 271.083 324.882 271.168L325.906 271.36C326.546 271.488 327.053 271.648 327.426 271.84C327.81 272.021 328.082 272.261 328.242 272.56C328.413 272.848 328.498 273.227 328.498 273.696C328.498 274.517 328.221 275.136 327.666 275.552C327.111 275.957 326.279 276.16 325.17 276.16C324.125 276.16 323.309 275.947 322.722 275.52C322.146 275.083 321.805 274.405 321.698 273.488H323.522C323.597 273.904 323.757 274.213 324.002 274.416C324.258 274.608 324.658 274.704 325.202 274.704C325.703 274.704 326.055 274.624 326.258 274.464C326.461 274.304 326.562 274.08 326.562 273.792C326.562 273.589 326.525 273.435 326.45 273.328C326.386 273.211 326.274 273.115 326.114 273.04C325.954 272.965 325.725 272.901 325.426 272.848L324.242 272.624C323.474 272.485 322.893 272.24 322.498 271.888C322.103 271.536 321.906 271.008 321.906 270.304C321.906 269.557 322.162 268.965 322.674 268.528C323.186 268.091 323.959 267.872 324.994 267.872C326.114 267.872 326.935 268.096 327.458 268.544C327.991 268.992 328.279 269.637 328.322 270.48H326.418C326.375 270.096 326.247 269.813 326.034 269.632C325.821 269.44 325.479 269.344 325.01 269.344Z" fill="#222222"/>
</g>
<rect x="269" y="389" width="88" height="46" rx="3" fill="#0D45CD" fill-opacity="0.2" stroke="#0D45CD" stroke-width="2"/>
<path d="M300.318 408.32C299.913 408.32 299.588 408.379 299.342 408.496C299.108 408.603 298.937 408.752 298.83 408.944C298.734 409.136 298.686 409.36 298.686 409.616C298.686 409.893 298.734 410.123 298.83 410.304C298.926 410.475 299.092 410.624 299.326 410.752C299.561 410.88 299.876 411.024 300.27 411.184L301.438 411.632C302.174 411.909 302.75 412.197 303.166 412.496C303.582 412.795 303.87 413.141 304.03 413.536C304.201 413.92 304.286 414.389 304.286 414.944C304.286 415.968 303.982 416.763 303.374 417.328C302.777 417.883 301.828 418.16 300.526 418.16C299.332 418.16 298.382 417.888 297.678 417.344C296.974 416.8 296.553 415.925 296.414 414.72H298.318C298.425 415.339 298.644 415.787 298.974 416.064C299.305 416.341 299.822 416.48 300.526 416.48C301.166 416.48 301.625 416.363 301.902 416.128C302.18 415.893 302.318 415.531 302.318 415.04C302.318 414.741 302.265 414.496 302.158 414.304C302.062 414.101 301.886 413.925 301.63 413.776C301.385 413.616 301.038 413.451 300.59 413.28L299.486 412.88C298.814 412.624 298.27 412.363 297.854 412.096C297.449 411.819 297.156 411.488 296.974 411.104C296.793 410.72 296.702 410.245 296.702 409.68C296.702 409.093 296.83 408.571 297.086 408.112C297.342 407.653 297.737 407.296 298.27 407.04C298.804 406.773 299.486 406.64 300.318 406.64C301.545 406.64 302.468 406.944 303.086 407.552C303.705 408.16 304.036 409.003 304.078 410.08H302.174C302.132 409.493 301.972 409.056 301.694 408.768C301.417 408.469 300.958 408.32 300.318 408.32ZM309.037 416.784C309.549 416.784 309.938 416.651 310.205 416.384C310.482 416.107 310.621 415.648 310.621 415.008V414.56H309.069C308.589 414.56 308.248 414.645 308.045 414.816C307.853 414.987 307.757 415.221 307.757 415.52V415.776C307.757 416.107 307.858 416.357 308.061 416.528C308.264 416.699 308.589 416.784 309.037 416.784ZM310.621 418V417.024C310.429 417.408 310.152 417.696 309.789 417.888C309.437 418.069 308.962 418.16 308.365 418.16C307.576 418.16 306.952 417.968 306.493 417.584C306.045 417.189 305.821 416.645 305.821 415.952V415.52C305.821 414.923 306.05 414.427 306.509 414.032C306.968 413.637 307.736 413.44 308.813 413.44H310.621V413.04C310.621 412.528 310.52 412.155 310.317 411.92C310.125 411.675 309.784 411.552 309.293 411.552C308.856 411.552 308.536 411.643 308.333 411.824C308.13 412.005 308.008 412.24 307.965 412.528H306.061C306.168 411.739 306.488 411.099 307.021 410.608C307.554 410.117 308.354 409.872 309.421 409.872C310.424 409.872 311.197 410.117 311.741 410.608C312.285 411.088 312.557 411.835 312.557 412.848V418H310.621ZM318.554 418H316.266L313.498 410.032H315.626L317.45 416.048L319.29 410.032H321.338L318.554 418ZM329.144 415.6C329.026 416.411 328.664 417.04 328.056 417.488C327.458 417.936 326.68 418.16 325.72 418.16C324.653 418.16 323.789 417.856 323.128 417.248C322.477 416.64 322.152 415.749 322.152 414.576V413.456C322.152 412.293 322.477 411.408 323.128 410.8C323.778 410.181 324.653 409.872 325.752 409.872C326.808 409.872 327.645 410.187 328.264 410.816C328.882 411.445 329.192 412.357 329.192 413.552V414.464H324.136C324.146 414.571 324.157 414.677 324.168 414.784C324.178 414.88 324.189 414.981 324.2 415.088C324.264 415.547 324.429 415.904 324.696 416.16C324.962 416.416 325.341 416.544 325.832 416.544C325.864 416.544 325.89 416.544 325.912 416.544C325.944 416.533 325.97 416.528 325.992 416.528C326.365 416.507 326.653 416.411 326.856 416.24C327.058 416.059 327.192 415.845 327.256 415.6H329.144ZM324.136 413.232L324.328 413.28H327.336C327.304 412.661 327.165 412.208 326.92 411.92C326.674 411.621 326.285 411.472 325.752 411.472C325.229 411.472 324.834 411.632 324.568 411.952C324.312 412.261 324.168 412.688 324.136 413.232Z" fill="#0D45CD"/>
<path d="M275.836 316L273.712 308.692L271.588 316H270.556L268.216 307.6H269.248L271.12 314.764L273.232 307.6H274.324L276.376 314.776L278.296 307.6H279.28L276.94 316H275.836ZM282.384 316.12C281.624 316.12 281.016 315.904 280.56 315.472C280.104 315.032 279.876 314.384 279.876 313.528V312.616C279.876 311.76 280.104 311.116 280.56 310.684C281.016 310.244 281.624 310.024 282.384 310.024C283.144 310.024 283.752 310.244 284.208 310.684C284.672 311.116 284.904 311.76 284.904 312.616V313.528C284.904 314.384 284.672 315.032 284.208 315.472C283.752 315.904 283.144 316.12 282.384 316.12ZM282.384 310.84C281.848 310.84 281.456 311.004 281.208 311.332C280.96 311.652 280.836 312.08 280.836 312.616V313.516C280.836 314.068 280.96 314.504 281.208 314.824C281.456 315.144 281.848 315.304 282.384 315.304C282.92 315.304 283.312 315.144 283.56 314.824C283.816 314.504 283.944 314.068 283.944 313.516V312.616C283.944 312.08 283.816 311.652 283.56 311.332C283.312 311.004 282.92 310.84 282.384 310.84ZM290.235 316V314.824C290.067 315.264 289.823 315.592 289.503 315.808C289.183 316.016 288.807 316.12 288.375 316.12C287.743 316.12 287.263 315.952 286.935 315.616C286.607 315.28 286.443 314.764 286.443 314.068V310.144H287.379V313.876C287.379 314.364 287.483 314.732 287.691 314.98C287.899 315.22 288.231 315.34 288.687 315.34C288.975 315.34 289.235 315.268 289.467 315.124C289.699 314.98 289.883 314.772 290.019 314.5C290.163 314.228 290.235 313.9 290.235 313.516V310.144H291.183V316H290.235ZM294.048 314.536C294.048 314.816 294.096 315.004 294.192 315.1C294.288 315.196 294.456 315.244 294.696 315.244H294.876V316.06H294.66C294.292 316.06 293.992 316.016 293.76 315.928C293.536 315.84 293.368 315.688 293.256 315.472C293.152 315.248 293.1 314.94 293.1 314.548V307.24H294.048V314.536ZM298.345 310.84C297.817 310.84 297.425 311.004 297.169 311.332C296.921 311.66 296.797 312.092 296.797 312.628V313.504C296.797 314.056 296.921 314.496 297.169 314.824C297.425 315.144 297.821 315.304 298.357 315.304C298.845 315.304 299.229 315.152 299.509 314.848C299.789 314.536 299.929 314.072 299.929 313.456V312.604C299.929 312.06 299.785 311.632 299.497 311.32C299.217 311 298.833 310.84 298.345 310.84ZM299.929 316V315.04C299.769 315.4 299.533 315.672 299.221 315.856C298.909 316.032 298.545 316.12 298.129 316.12C297.681 316.12 297.285 316.024 296.941 315.832C296.597 315.64 296.329 315.352 296.137 314.968C295.945 314.576 295.849 314.096 295.849 313.528V312.628C295.849 312.052 295.945 311.572 296.137 311.188C296.329 310.804 296.597 310.516 296.941 310.324C297.285 310.124 297.681 310.024 298.129 310.024C298.569 310.024 298.941 310.12 299.245 310.312C299.549 310.496 299.777 310.756 299.929 311.092V307.24H300.865V316H299.929ZM305.621 318.46H305.261V317.644H305.621C305.853 317.644 306.053 317.612 306.221 317.548C306.397 317.492 306.561 317.368 306.713 317.176C306.865 316.984 307.021 316.692 307.181 316.3L307.505 315.532L305.189 310.144H306.197L307.973 314.38L309.737 310.144H310.709L307.973 316.612C307.773 317.1 307.565 317.476 307.349 317.74C307.141 318.012 306.901 318.2 306.629 318.304C306.357 318.408 306.021 318.46 305.621 318.46ZM313.896 316.12C313.136 316.12 312.528 315.904 312.072 315.472C311.616 315.032 311.388 314.384 311.388 313.528V312.616C311.388 311.76 311.616 311.116 312.072 310.684C312.528 310.244 313.136 310.024 313.896 310.024C314.656 310.024 315.264 310.244 315.72 310.684C316.184 311.116 316.416 311.76 316.416 312.616V313.528C316.416 314.384 316.184 315.032 315.72 315.472C315.264 315.904 314.656 316.12 313.896 316.12ZM313.896 310.84C313.36 310.84 312.968 311.004 312.72 311.332C312.472 311.652 312.348 312.08 312.348 312.616V313.516C312.348 314.068 312.472 314.504 312.72 314.824C312.968 315.144 313.36 315.304 313.896 315.304C314.432 315.304 314.824 315.144 315.072 314.824C315.328 314.504 315.456 314.068 315.456 313.516V312.616C315.456 312.08 315.328 311.652 315.072 311.332C314.824 311.004 314.432 310.84 313.896 310.84ZM321.747 316V314.824C321.579 315.264 321.335 315.592 321.015 315.808C320.695 316.016 320.319 316.12 319.887 316.12C319.255 316.12 318.775 315.952 318.447 315.616C318.119 315.28 317.955 314.764 317.955 314.068V310.144H318.891V313.876C318.891 314.364 318.995 314.732 319.203 314.98C319.411 315.22 319.743 315.34 320.199 315.34C320.487 315.34 320.747 315.268 320.979 315.124C321.211 314.98 321.395 314.772 321.531 314.5C321.675 314.228 321.747 313.9 321.747 313.516V310.144H322.695V316H321.747ZM328.677 314.536C328.677 314.816 328.725 315.004 328.821 315.1C328.917 315.196 329.085 315.244 329.325 315.244H329.505V316.06H329.289C328.921 316.06 328.621 316.016 328.389 315.928C328.165 315.84 327.997 315.688 327.885 315.472C327.781 315.248 327.729 314.94 327.729 314.548V307.24H328.677V314.536ZM331.35 309.004C331.158 309.004 330.998 308.948 330.87 308.836C330.75 308.716 330.69 308.568 330.69 308.392C330.69 308.216 330.75 308.072 330.87 307.96C330.998 307.84 331.158 307.78 331.35 307.78C331.55 307.78 331.71 307.84 331.83 307.96C331.958 308.072 332.022 308.216 332.022 308.392C332.022 308.568 331.958 308.716 331.83 308.836C331.71 308.948 331.55 309.004 331.35 309.004ZM330.882 316V310.144H331.83V316H330.882ZM337.712 316L335.744 313.24L334.748 314.368V316H333.8V307.24H334.748V313.144L337.412 310.144H338.48L336.368 312.532L338.876 316H337.712ZM344.267 314.248C344.211 314.856 343.967 315.32 343.535 315.64C343.111 315.96 342.567 316.12 341.903 316.12C341.159 316.12 340.559 315.904 340.103 315.472C339.647 315.032 339.419 314.384 339.419 313.528V312.616C339.419 311.76 339.647 311.116 340.103 310.684C340.559 310.244 341.163 310.024 341.915 310.024C342.643 310.024 343.223 310.244 343.655 310.684C344.087 311.124 344.303 311.776 344.303 312.64V313.18H340.391C340.391 313.276 340.391 313.372 340.391 313.468C340.399 313.556 340.407 313.648 340.415 313.744C340.439 314.232 340.575 314.62 340.823 314.908C341.071 315.188 341.447 315.328 341.951 315.328C341.999 315.328 342.043 315.328 342.083 315.328C342.131 315.328 342.175 315.324 342.215 315.316C342.559 315.276 342.827 315.164 343.019 314.98C343.211 314.796 343.327 314.552 343.367 314.248H344.267ZM340.391 312.496L340.463 312.58H343.415C343.391 311.972 343.263 311.524 343.031 311.236C342.799 310.948 342.427 310.804 341.915 310.804C341.403 310.804 341.023 310.96 340.775 311.272C340.527 311.576 340.399 311.984 340.391 312.496ZM352.021 315.268V316.06H351.169C350.529 316.06 350.061 315.916 349.765 315.628C349.477 315.34 349.333 314.884 349.333 314.26V310.936H348.421V310.144H349.333V308.416H350.269V310.144H352.021V310.936H350.269V314.272C350.269 314.6 350.345 314.848 350.497 315.016C350.657 315.184 350.937 315.268 351.337 315.268H352.021ZM355.451 316.12C354.691 316.12 354.083 315.904 353.627 315.472C353.171 315.032 352.943 314.384 352.943 313.528V312.616C352.943 311.76 353.171 311.116 353.627 310.684C354.083 310.244 354.691 310.024 355.451 310.024C356.211 310.024 356.819 310.244 357.275 310.684C357.739 311.116 357.971 311.76 357.971 312.616V313.528C357.971 314.384 357.739 315.032 357.275 315.472C356.819 315.904 356.211 316.12 355.451 316.12ZM355.451 310.84C354.915 310.84 354.523 311.004 354.275 311.332C354.027 311.652 353.903 312.08 353.903 312.616V313.516C353.903 314.068 354.027 314.504 354.275 314.824C354.523 315.144 354.915 315.304 355.451 315.304C355.987 315.304 356.379 315.144 356.627 314.824C356.883 314.504 357.011 314.068 357.011 313.516V312.616C357.011 312.08 356.883 311.652 356.627 311.332C356.379 311.004 355.987 310.84 355.451 310.84ZM365.025 316.12C364.265 316.12 363.657 315.904 363.201 315.472C362.745 315.032 362.517 314.384 362.517 313.528V312.616C362.517 311.76 362.745 311.116 363.201 310.684C363.657 310.244 364.265 310.024 365.025 310.024C365.785 310.024 366.393 310.244 366.849 310.684C367.313 311.116 367.545 311.76 367.545 312.616V313.528C367.545 314.384 367.313 315.032 366.849 315.472C366.393 315.904 365.785 316.12 365.025 316.12ZM365.025 310.84C364.489 310.84 364.097 311.004 363.849 311.332C363.601 311.652 363.477 312.08 363.477 312.616V313.516C363.477 314.068 363.601 314.504 363.849 314.824C364.097 315.144 364.489 315.304 365.025 315.304C365.561 315.304 365.953 315.144 366.201 314.824C366.457 314.504 366.585 314.068 366.585 313.516V312.616C366.585 312.08 366.457 311.652 366.201 311.332C365.953 311.004 365.561 310.84 365.025 310.84ZM371.77 315.304C372.298 315.304 372.686 315.144 372.934 314.824C373.19 314.496 373.318 314.06 373.318 313.516V312.64C373.318 312.088 373.19 311.652 372.934 311.332C372.686 311.004 372.294 310.84 371.758 310.84C371.27 310.84 370.886 310.996 370.606 311.308C370.326 311.62 370.186 312.08 370.186 312.688V313.54C370.186 314.084 370.33 314.516 370.618 314.836C370.906 315.148 371.29 315.304 371.77 315.304ZM371.986 316.12C371.546 316.12 371.174 316.028 370.87 315.844C370.566 315.652 370.338 315.388 370.186 315.052V318.4H369.238V310.144H370.186V311.128C370.346 310.76 370.578 310.484 370.882 310.3C371.194 310.116 371.562 310.024 371.986 310.024C372.434 310.024 372.826 310.124 373.162 310.324C373.506 310.516 373.774 310.804 373.966 311.188C374.166 311.572 374.266 312.052 374.266 312.628V313.528C374.266 314.096 374.166 314.576 373.966 314.968C373.774 315.352 373.506 315.64 373.162 315.832C372.826 316.024 372.434 316.12 371.986 316.12ZM380.525 314.248C380.469 314.856 380.225 315.32 379.793 315.64C379.369 315.96 378.825 316.12 378.161 316.12C377.417 316.12 376.817 315.904 376.361 315.472C375.905 315.032 375.677 314.384 375.677 313.528V312.616C375.677 311.76 375.905 311.116 376.361 310.684C376.817 310.244 377.421 310.024 378.173 310.024C378.901 310.024 379.481 310.244 379.913 310.684C380.345 311.124 380.561 311.776 380.561 312.64V313.18H376.649C376.649 313.276 376.649 313.372 376.649 313.468C376.657 313.556 376.665 313.648 376.673 313.744C376.697 314.232 376.833 314.62 377.081 314.908C377.329 315.188 377.705 315.328 378.209 315.328C378.257 315.328 378.301 315.328 378.341 315.328C378.389 315.328 378.433 315.324 378.473 315.316C378.817 315.276 379.085 315.164 379.277 314.98C379.469 314.796 379.585 314.552 379.625 314.248H380.525ZM376.649 312.496L376.721 312.58H379.673C379.649 311.972 379.521 311.524 379.289 311.236C379.057 310.948 378.685 310.804 378.173 310.804C377.661 310.804 377.281 310.96 377.033 311.272C376.785 311.576 376.657 311.984 376.649 312.496ZM383.182 312.664V316H382.234V310.144H383.182V311.248C383.366 310.84 383.622 310.536 383.95 310.336C384.286 310.128 384.662 310.024 385.078 310.024C385.718 310.024 386.206 310.196 386.542 310.54C386.878 310.876 387.046 311.4 387.046 312.112V316H386.11V312.304C386.11 311.808 386.006 311.44 385.798 311.2C385.59 310.96 385.246 310.84 384.766 310.84C384.478 310.84 384.214 310.912 383.974 311.056C383.734 311.2 383.542 311.408 383.398 311.68C383.254 311.944 383.182 312.272 383.182 312.664ZM393.002 312.664V316H392.054V310.144H393.002V311.26C393.186 310.852 393.438 310.544 393.758 310.336C394.086 310.128 394.458 310.024 394.874 310.024C395.346 310.024 395.73 310.128 396.026 310.336C396.322 310.536 396.522 310.848 396.626 311.272C396.826 310.856 397.098 310.544 397.442 310.336C397.786 310.128 398.178 310.024 398.618 310.024C399.226 310.024 399.69 310.196 400.01 310.54C400.33 310.876 400.49 311.4 400.49 312.112V316H399.542V312.304C399.542 311.808 399.446 311.44 399.254 311.2C399.062 310.96 398.746 310.84 398.306 310.84C398.018 310.84 397.754 310.912 397.514 311.056C397.282 311.2 397.094 311.408 396.95 311.68C396.814 311.944 396.746 312.272 396.746 312.664V316H395.798V312.304C395.798 311.808 395.702 311.44 395.51 311.2C395.318 310.96 395.002 310.84 394.562 310.84C394.274 310.84 394.01 310.912 393.77 311.056C393.538 311.2 393.35 311.408 393.206 311.68C393.07 311.944 393.002 312.272 393.002 312.664ZM406.974 314.248C406.918 314.856 406.674 315.32 406.242 315.64C405.818 315.96 405.274 316.12 404.61 316.12C403.866 316.12 403.266 315.904 402.81 315.472C402.354 315.032 402.126 314.384 402.126 313.528V312.616C402.126 311.76 402.354 311.116 402.81 310.684C403.266 310.244 403.87 310.024 404.622 310.024C405.35 310.024 405.93 310.244 406.362 310.684C406.794 311.124 407.01 311.776 407.01 312.64V313.18H403.098C403.098 313.276 403.098 313.372 403.098 313.468C403.106 313.556 403.114 313.648 403.122 313.744C403.146 314.232 403.282 314.62 403.53 314.908C403.778 315.188 404.154 315.328 404.658 315.328C404.706 315.328 404.75 315.328 404.79 315.328C404.838 315.328 404.882 315.324 404.922 315.316C405.266 315.276 405.534 315.164 405.726 314.98C405.918 314.796 406.034 314.552 406.074 314.248H406.974ZM403.098 312.496L403.17 312.58H406.122C406.098 311.972 405.97 311.524 405.738 311.236C405.506 310.948 405.134 310.804 404.622 310.804C404.11 310.804 403.73 310.96 403.482 311.272C403.234 311.576 403.106 311.984 403.098 312.496ZM413.267 314.248C413.211 314.856 412.967 315.32 412.535 315.64C412.111 315.96 411.567 316.12 410.903 316.12C410.159 316.12 409.559 315.904 409.103 315.472C408.647 315.032 408.419 314.384 408.419 313.528V312.616C408.419 311.76 408.647 311.116 409.103 310.684C409.559 310.244 410.163 310.024 410.915 310.024C411.643 310.024 412.223 310.244 412.655 310.684C413.087 311.124 413.303 311.776 413.303 312.64V313.18H409.391C409.391 313.276 409.391 313.372 409.391 313.468C409.399 313.556 409.407 313.648 409.415 313.744C409.439 314.232 409.575 314.62 409.823 314.908C410.071 315.188 410.447 315.328 410.951 315.328C410.999 315.328 411.043 315.328 411.083 315.328C411.131 315.328 411.175 315.324 411.215 315.316C411.559 315.276 411.827 315.164 412.019 314.98C412.211 314.796 412.327 314.552 412.367 314.248H413.267ZM409.391 312.496L409.463 312.58H412.415C412.391 311.972 412.263 311.524 412.031 311.236C411.799 310.948 411.427 310.804 410.915 310.804C410.403 310.804 410.023 310.96 409.775 311.272C409.527 311.576 409.399 311.984 409.391 312.496ZM417.752 315.268V316.06H416.9C416.26 316.06 415.792 315.916 415.496 315.628C415.208 315.34 415.064 314.884 415.064 314.26V310.936H414.152V310.144H415.064V308.416H416V310.144H417.752V310.936H416V314.272C416 314.6 416.076 314.848 416.228 315.016C416.388 315.184 416.668 315.268 417.068 315.268H417.752ZM419.604 309.004C419.412 309.004 419.252 308.948 419.124 308.836C419.004 308.716 418.944 308.568 418.944 308.392C418.944 308.216 419.004 308.072 419.124 307.96C419.252 307.84 419.412 307.78 419.604 307.78C419.804 307.78 419.964 307.84 420.084 307.96C420.212 308.072 420.276 308.216 420.276 308.392C420.276 308.568 420.212 308.716 420.084 308.836C419.964 308.948 419.804 309.004 419.604 309.004ZM419.136 316V310.144H420.084V316H419.136ZM423.002 312.664V316H422.054V310.144H423.002V311.248C423.186 310.84 423.442 310.536 423.77 310.336C424.106 310.128 424.482 310.024 424.898 310.024C425.538 310.024 426.026 310.196 426.362 310.54C426.698 310.876 426.866 311.4 426.866 312.112V316H425.93V312.304C425.93 311.808 425.826 311.44 425.618 311.2C425.41 310.96 425.066 310.84 424.586 310.84C424.298 310.84 424.034 310.912 423.794 311.056C423.554 311.2 423.362 311.408 423.218 311.68C423.074 311.944 423.002 312.272 423.002 312.664ZM430.977 310.84C430.449 310.84 430.061 311.004 429.813 311.332C429.565 311.66 429.441 312.092 429.441 312.628V313.384C429.441 313.936 429.565 314.376 429.813 314.704C430.069 315.024 430.465 315.184 431.001 315.184C431.489 315.184 431.869 315.032 432.141 314.728C432.421 314.416 432.561 313.952 432.561 313.336V312.604C432.561 312.06 432.417 311.632 432.129 311.32C431.849 311 431.465 310.84 430.977 310.84ZM431.061 318.52C430.333 318.52 429.761 318.364 429.345 318.052C428.929 317.74 428.685 317.296 428.613 316.72H429.525C429.581 317.048 429.729 317.292 429.969 317.452C430.217 317.62 430.573 317.704 431.037 317.704C431.565 317.704 431.949 317.564 432.189 317.284C432.437 317.012 432.561 316.552 432.561 315.904V314.92C432.409 315.28 432.177 315.552 431.865 315.736C431.553 315.912 431.185 316 430.761 316C430.321 316 429.929 315.904 429.585 315.712C429.241 315.52 428.969 315.232 428.769 314.848C428.577 314.456 428.481 313.976 428.481 313.408V312.628C428.481 312.052 428.577 311.572 428.769 311.188C428.969 310.804 429.241 310.516 429.585 310.324C429.929 310.124 430.321 310.024 430.761 310.024C431.201 310.024 431.573 310.12 431.877 310.312C432.181 310.496 432.409 310.756 432.561 311.092V310.144H433.509V315.904C433.509 316.488 433.417 316.972 433.233 317.356C433.049 317.748 432.777 318.04 432.417 318.232C432.057 318.424 431.605 318.52 431.061 318.52ZM440.377 315.436C440.865 315.436 441.241 315.32 441.505 315.088C441.769 314.848 441.901 314.452 441.901 313.9V313.324H440.365C439.909 313.324 439.593 313.404 439.417 313.564C439.241 313.716 439.153 313.932 439.153 314.212V314.464C439.153 314.784 439.253 315.028 439.453 315.196C439.653 315.356 439.961 315.436 440.377 315.436ZM441.901 316V315.184C441.749 315.496 441.529 315.732 441.241 315.892C440.961 316.044 440.581 316.12 440.101 316.12C439.493 316.12 439.025 315.98 438.697 315.7C438.377 315.42 438.217 315.04 438.217 314.56V314.2C438.217 313.776 438.373 313.424 438.685 313.144C438.997 312.864 439.529 312.724 440.281 312.724H441.901V312.232C441.901 311.728 441.805 311.372 441.613 311.164C441.421 310.948 441.089 310.84 440.617 310.84C440.193 310.84 439.881 310.932 439.681 311.116C439.481 311.3 439.361 311.54 439.321 311.836H438.409C438.481 311.3 438.693 310.864 439.045 310.528C439.405 310.192 439.957 310.024 440.701 310.024C441.421 310.024 441.957 310.196 442.309 310.54C442.661 310.876 442.837 311.4 442.837 312.112V316H441.901ZM447.553 315.268V316.06H446.701C446.061 316.06 445.593 315.916 445.297 315.628C445.009 315.34 444.865 314.884 444.865 314.26V310.936H443.953V310.144H444.865V308.416H445.801V310.144H447.553V310.936H445.801V314.272C445.801 314.6 445.877 314.848 446.029 315.016C446.189 315.184 446.469 315.268 446.869 315.268H447.553ZM451.865 315.268V316.06H451.013C450.373 316.06 449.905 315.916 449.609 315.628C449.321 315.34 449.177 314.884 449.177 314.26V310.936H448.265V310.144H449.177V308.416H450.113V310.144H451.865V310.936H450.113V314.272C450.113 314.6 450.189 314.848 450.341 315.016C450.501 315.184 450.781 315.268 451.181 315.268H451.865ZM454.991 315.436C455.479 315.436 455.855 315.32 456.119 315.088C456.383 314.848 456.515 314.452 456.515 313.9V313.324H454.979C454.523 313.324 454.207 313.404 454.031 313.564C453.855 313.716 453.767 313.932 453.767 314.212V314.464C453.767 314.784 453.867 315.028 454.067 315.196C454.267 315.356 454.575 315.436 454.991 315.436ZM456.515 316V315.184C456.363 315.496 456.143 315.732 455.855 315.892C455.575 316.044 455.195 316.12 454.715 316.12C454.107 316.12 453.639 315.98 453.311 315.7C452.991 315.42 452.831 315.04 452.831 314.56V314.2C452.831 313.776 452.987 313.424 453.299 313.144C453.611 312.864 454.143 312.724 454.895 312.724H456.515V312.232C456.515 311.728 456.419 311.372 456.227 311.164C456.035 310.948 455.703 310.84 455.231 310.84C454.807 310.84 454.495 310.932 454.295 311.116C454.095 311.3 453.975 311.54 453.935 311.836H453.023C453.095 311.3 453.307 310.864 453.659 310.528C454.019 310.192 454.571 310.024 455.315 310.024C456.035 310.024 456.571 310.196 456.923 310.54C457.275 310.876 457.451 311.4 457.451 312.112V316H456.515ZM461.551 315.304C461.975 315.304 462.295 315.212 462.511 315.028C462.735 314.836 462.883 314.552 462.955 314.176H463.855C463.799 314.6 463.667 314.96 463.459 315.256C463.259 315.544 462.995 315.76 462.667 315.904C462.347 316.048 461.967 316.12 461.527 316.12C460.791 316.12 460.199 315.904 459.751 315.472C459.303 315.032 459.079 314.388 459.079 313.54V312.628C459.079 312.052 459.183 311.572 459.391 311.188C459.599 310.804 459.883 310.516 460.243 310.324C460.611 310.124 461.043 310.024 461.539 310.024C462.251 310.024 462.795 310.204 463.171 310.564C463.555 310.924 463.763 311.396 463.795 311.98H462.883C462.827 311.604 462.691 311.32 462.475 311.128C462.259 310.936 461.947 310.84 461.539 310.84C461.019 310.84 460.639 311 460.399 311.32C460.159 311.632 460.039 312.072 460.039 312.64V313.516C460.039 314.076 460.163 314.516 460.411 314.836C460.659 315.148 461.039 315.304 461.551 315.304ZM466.315 312.664V316H465.367V307.24H466.315V311.272C466.499 310.856 466.755 310.544 467.083 310.336C467.419 310.128 467.795 310.024 468.211 310.024C468.851 310.024 469.339 310.196 469.675 310.54C470.011 310.876 470.179 311.4 470.179 312.112V316H469.243V312.304C469.243 311.808 469.139 311.44 468.931 311.2C468.723 310.96 468.379 310.84 467.899 310.84C467.611 310.84 467.347 310.912 467.107 311.056C466.867 311.2 466.675 311.408 466.531 311.68C466.387 311.944 466.315 312.272 466.315 312.664ZM473.03 312.664V316H472.082V310.144H473.03V311.26C473.214 310.852 473.466 310.544 473.786 310.336C474.114 310.128 474.486 310.024 474.902 310.024C475.374 310.024 475.758 310.128 476.054 310.336C476.35 310.536 476.55 310.848 476.654 311.272C476.854 310.856 477.126 310.544 477.47 310.336C477.814 310.128 478.206 310.024 478.646 310.024C479.254 310.024 479.718 310.196 480.038 310.54C480.358 310.876 480.518 311.4 480.518 312.112V316H479.57V312.304C479.57 311.808 479.474 311.44 479.282 311.2C479.09 310.96 478.774 310.84 478.334 310.84C478.046 310.84 477.782 310.912 477.542 311.056C477.31 311.2 477.122 311.408 476.978 311.68C476.842 311.944 476.774 312.272 476.774 312.664V316H475.826V312.304C475.826 311.808 475.73 311.44 475.538 311.2C475.346 310.96 475.03 310.84 474.59 310.84C474.302 310.84 474.038 310.912 473.798 311.056C473.566 311.2 473.378 311.408 473.234 311.68C473.098 311.944 473.03 312.272 473.03 312.664ZM487.002 314.248C486.946 314.856 486.702 315.32 486.27 315.64C485.846 315.96 485.302 316.12 484.638 316.12C483.894 316.12 483.294 315.904 482.838 315.472C482.382 315.032 482.154 314.384 482.154 313.528V312.616C482.154 311.76 482.382 311.116 482.838 310.684C483.294 310.244 483.898 310.024 484.65 310.024C485.378 310.024 485.958 310.244 486.39 310.684C486.822 311.124 487.038 311.776 487.038 312.64V313.18H483.126C483.126 313.276 483.126 313.372 483.126 313.468C483.134 313.556 483.142 313.648 483.15 313.744C483.174 314.232 483.31 314.62 483.558 314.908C483.806 315.188 484.182 315.328 484.686 315.328C484.734 315.328 484.778 315.328 484.818 315.328C484.866 315.328 484.91 315.324 484.95 315.316C485.294 315.276 485.562 315.164 485.754 314.98C485.946 314.796 486.062 314.552 486.102 314.248H487.002ZM483.126 312.496L483.198 312.58H486.15C486.126 311.972 485.998 311.524 485.766 311.236C485.534 310.948 485.162 310.804 484.65 310.804C484.138 310.804 483.758 310.96 483.51 311.272C483.262 311.576 483.134 311.984 483.126 312.496ZM489.659 312.664V316H488.711V310.144H489.659V311.248C489.843 310.84 490.099 310.536 490.427 310.336C490.763 310.128 491.139 310.024 491.555 310.024C492.195 310.024 492.683 310.196 493.019 310.54C493.355 310.876 493.523 311.4 493.523 312.112V316H492.587V312.304C492.587 311.808 492.483 311.44 492.275 311.2C492.067 310.96 491.723 310.84 491.243 310.84C490.955 310.84 490.691 310.912 490.451 311.056C490.211 311.2 490.019 311.408 489.875 311.68C489.731 311.944 489.659 312.272 489.659 312.664ZM498.342 315.268V316.06H497.49C496.85 316.06 496.382 315.916 496.086 315.628C495.798 315.34 495.654 314.884 495.654 314.26V310.936H494.742V310.144H495.654V308.416H496.59V310.144H498.342V310.936H496.59V314.272C496.59 314.6 496.666 314.848 496.818 315.016C496.978 315.184 497.258 315.268 497.658 315.268H498.342ZM501.622 310.756C501.198 310.756 500.894 310.832 500.71 310.984C500.526 311.136 500.434 311.36 500.434 311.656C500.434 311.928 500.514 312.128 500.674 312.256C500.834 312.384 501.102 312.492 501.478 312.58L502.234 312.748C502.682 312.844 503.042 312.96 503.314 313.096C503.586 313.224 503.778 313.392 503.89 313.6C504.01 313.8 504.07 314.064 504.07 314.392C504.07 314.952 503.878 315.38 503.494 315.676C503.118 315.972 502.554 316.12 501.802 316.12C501.042 316.12 500.458 315.96 500.05 315.64C499.642 315.32 499.402 314.816 499.33 314.128H500.218C500.266 314.576 500.418 314.9 500.674 315.1C500.93 315.3 501.314 315.4 501.826 315.4C502.29 315.4 502.622 315.316 502.822 315.148C503.03 314.98 503.134 314.748 503.134 314.452C503.134 314.244 503.098 314.084 503.026 313.972C502.962 313.852 502.846 313.756 502.678 313.684C502.51 313.612 502.27 313.54 501.958 313.468L501.13 313.3C500.586 313.188 500.178 313.012 499.906 312.772C499.634 312.532 499.498 312.168 499.498 311.68C499.498 311.184 499.67 310.784 500.014 310.48C500.358 310.176 500.894 310.024 501.622 310.024C502.398 310.024 502.97 310.188 503.338 310.516C503.706 310.836 503.906 311.296 503.938 311.896H503.038C502.998 311.504 502.866 311.216 502.642 311.032C502.426 310.848 502.086 310.756 501.622 310.756ZM508.56 311.332C508.296 311.556 508.068 311.752 507.876 311.92C507.684 312.088 507.532 312.28 507.42 312.496C507.316 312.712 507.264 313 507.264 313.36V313.864H506.328V313.396C506.328 313.028 506.356 312.72 506.412 312.472C506.468 312.224 506.576 312 506.736 311.8C506.896 311.592 507.128 311.368 507.432 311.128C507.68 310.928 507.892 310.756 508.068 310.612C508.252 310.46 508.392 310.304 508.488 310.144C508.592 309.976 508.644 309.776 508.644 309.544C508.644 309.144 508.508 308.836 508.236 308.62C507.972 308.404 507.6 308.296 507.12 308.296C506.6 308.296 506.188 308.432 505.884 308.704C505.588 308.976 505.44 309.34 505.44 309.796V310.096H504.528V309.772C504.528 309.308 504.64 308.904 504.864 308.56C505.088 308.216 505.396 307.952 505.788 307.768C506.18 307.576 506.628 307.48 507.132 307.48C507.612 307.48 508.036 307.56 508.404 307.72C508.78 307.88 509.072 308.112 509.28 308.416C509.496 308.72 509.604 309.088 509.604 309.52C509.604 309.792 509.552 310.04 509.448 310.264C509.344 310.48 509.212 310.68 509.052 310.864C508.892 311.04 508.728 311.196 508.56 311.332ZM506.796 316.12C506.604 316.12 506.444 316.056 506.316 315.928C506.188 315.8 506.124 315.644 506.124 315.46C506.124 315.26 506.188 315.1 506.316 314.98C506.444 314.852 506.604 314.788 506.796 314.788C506.996 314.788 507.16 314.848 507.288 314.968C507.416 315.088 507.48 315.252 507.48 315.46C507.48 315.644 507.416 315.8 507.288 315.928C507.16 316.056 506.996 316.12 506.796 316.12Z" fill="#888888"/>
<path d="M274.24 235V231.064H270.016V235H269.08V226.6H270.016V230.248H274.24V226.6H275.176V235H274.24ZM279.49 235.12C278.73 235.12 278.122 234.904 277.666 234.472C277.21 234.032 276.982 233.384 276.982 232.528V231.616C276.982 230.76 277.21 230.116 277.666 229.684C278.122 229.244 278.73 229.024 279.49 229.024C280.25 229.024 280.858 229.244 281.314 229.684C281.778 230.116 282.01 230.76 282.01 231.616V232.528C282.01 233.384 281.778 234.032 281.314 234.472C280.858 234.904 280.25 235.12 279.49 235.12ZM279.49 229.84C278.954 229.84 278.562 230.004 278.314 230.332C278.066 230.652 277.942 231.08 277.942 231.616V232.516C277.942 233.068 278.066 233.504 278.314 233.824C278.562 234.144 278.954 234.304 279.49 234.304C280.026 234.304 280.418 234.144 280.666 233.824C280.922 233.504 281.05 233.068 281.05 232.516V231.616C281.05 231.08 280.922 230.652 280.666 230.332C280.418 230.004 280.026 229.84 279.49 229.84ZM288.89 235L287.282 230.308L285.65 235H284.642L282.902 229.144H283.91L285.23 233.944L286.874 229.144H287.75L289.382 233.956L290.726 229.144H291.698L289.946 235H288.89ZM300.697 233.248C300.641 233.856 300.397 234.32 299.965 234.64C299.541 234.96 298.997 235.12 298.333 235.12C297.589 235.12 296.989 234.904 296.533 234.472C296.077 234.032 295.849 233.384 295.849 232.528V231.616C295.849 230.76 296.077 230.116 296.533 229.684C296.989 229.244 297.593 229.024 298.345 229.024C299.073 229.024 299.653 229.244 300.085 229.684C300.517 230.124 300.733 230.776 300.733 231.64V232.18H296.821C296.821 232.276 296.821 232.372 296.821 232.468C296.829 232.556 296.837 232.648 296.845 232.744C296.869 233.232 297.005 233.62 297.253 233.908C297.501 234.188 297.877 234.328 298.381 234.328C298.429 234.328 298.473 234.328 298.513 234.328C298.561 234.328 298.605 234.324 298.645 234.316C298.989 234.276 299.257 234.164 299.449 233.98C299.641 233.796 299.757 233.552 299.797 233.248H300.697ZM296.821 231.496L296.893 231.58H299.845C299.821 230.972 299.693 230.524 299.461 230.236C299.229 229.948 298.857 229.804 298.345 229.804C297.833 229.804 297.453 229.96 297.205 230.272C296.957 230.576 296.829 230.984 296.821 231.496ZM304.194 234.436C304.682 234.436 305.058 234.32 305.322 234.088C305.586 233.848 305.718 233.452 305.718 232.9V232.324H304.182C303.726 232.324 303.41 232.404 303.234 232.564C303.058 232.716 302.97 232.932 302.97 233.212V233.464C302.97 233.784 303.07 234.028 303.27 234.196C303.47 234.356 303.778 234.436 304.194 234.436ZM305.718 235V234.184C305.566 234.496 305.346 234.732 305.058 234.892C304.778 235.044 304.398 235.12 303.918 235.12C303.31 235.12 302.842 234.98 302.514 234.7C302.194 234.42 302.034 234.04 302.034 233.56V233.2C302.034 232.776 302.19 232.424 302.502 232.144C302.814 231.864 303.346 231.724 304.098 231.724H305.718V231.232C305.718 230.728 305.622 230.372 305.43 230.164C305.238 229.948 304.906 229.84 304.434 229.84C304.01 229.84 303.698 229.932 303.498 230.116C303.298 230.3 303.178 230.54 303.138 230.836H302.226C302.298 230.3 302.51 229.864 302.862 229.528C303.222 229.192 303.774 229.024 304.518 229.024C305.238 229.024 305.774 229.196 306.126 229.54C306.478 229.876 306.654 230.4 306.654 231.112V235H305.718ZM309.495 231.724V235H308.547V229.144H309.495V230.176C309.679 229.784 309.923 229.496 310.227 229.312C310.531 229.12 310.879 229.024 311.271 229.024H311.559V229.936H311.247C310.727 229.936 310.303 230.088 309.975 230.392C309.655 230.696 309.495 231.14 309.495 231.724ZM313.63 233.536C313.63 233.816 313.678 234.004 313.774 234.1C313.87 234.196 314.038 234.244 314.278 234.244H314.458V235.06H314.242C313.874 235.06 313.574 235.016 313.342 234.928C313.118 234.84 312.95 234.688 312.838 234.472C312.734 234.248 312.682 233.94 312.682 233.548V226.24H313.63V233.536ZM315.406 237.46H315.046V236.644H315.406C315.638 236.644 315.838 236.612 316.006 236.548C316.182 236.492 316.346 236.368 316.498 236.176C316.65 235.984 316.806 235.692 316.966 235.3L317.29 234.532L314.974 229.144H315.982L317.758 233.38L319.522 229.144H320.494L317.758 235.612C317.558 236.1 317.35 236.476 317.134 236.74C316.926 237.012 316.686 237.2 316.414 237.304C316.142 237.408 315.806 237.46 315.406 237.46ZM330.128 235L328.52 230.308L326.888 235H325.88L324.14 229.144H325.148L326.468 233.944L328.112 229.144H328.988L330.62 233.956L331.964 229.144H332.936L331.184 235H330.128ZM336.349 235.12C335.589 235.12 334.981 234.904 334.525 234.472C334.069 234.032 333.841 233.384 333.841 232.528V231.616C333.841 230.76 334.069 230.116 334.525 229.684C334.981 229.244 335.589 229.024 336.349 229.024C337.109 229.024 337.717 229.244 338.173 229.684C338.637 230.116 338.869 230.76 338.869 231.616V232.528C338.869 233.384 338.637 234.032 338.173 234.472C337.717 234.904 337.109 235.12 336.349 235.12ZM336.349 229.84C335.813 229.84 335.421 230.004 335.173 230.332C334.925 230.652 334.801 231.08 334.801 231.616V232.516C334.801 233.068 334.925 233.504 335.173 233.824C335.421 234.144 335.813 234.304 336.349 234.304C336.885 234.304 337.277 234.144 337.525 233.824C337.781 233.504 337.909 233.068 337.909 232.516V231.616C337.909 231.08 337.781 230.652 337.525 230.332C337.277 230.004 336.885 229.84 336.349 229.84ZM344.2 235V233.824C344.032 234.264 343.788 234.592 343.468 234.808C343.148 235.016 342.772 235.12 342.34 235.12C341.708 235.12 341.228 234.952 340.9 234.616C340.572 234.28 340.408 233.764 340.408 233.068V229.144H341.344V232.876C341.344 233.364 341.448 233.732 341.656 233.98C341.864 234.22 342.196 234.34 342.652 234.34C342.94 234.34 343.2 234.268 343.432 234.124C343.664 233.98 343.848 233.772 343.984 233.5C344.128 233.228 344.2 232.9 344.2 232.516V229.144H345.148V235H344.2ZM348.013 233.536C348.013 233.816 348.061 234.004 348.157 234.1C348.253 234.196 348.421 234.244 348.661 234.244H348.841V235.06H348.625C348.257 235.06 347.957 235.016 347.725 234.928C347.501 234.84 347.333 234.688 347.221 234.472C347.117 234.248 347.065 233.94 347.065 233.548V226.24H348.013V233.536ZM352.31 229.84C351.782 229.84 351.39 230.004 351.134 230.332C350.886 230.66 350.762 231.092 350.762 231.628V232.504C350.762 233.056 350.886 233.496 351.134 233.824C351.39 234.144 351.786 234.304 352.322 234.304C352.81 234.304 353.194 234.152 353.474 233.848C353.754 233.536 353.894 233.072 353.894 232.456V231.604C353.894 231.06 353.75 230.632 353.462 230.32C353.182 230 352.798 229.84 352.31 229.84ZM353.894 235V234.04C353.734 234.4 353.498 234.672 353.186 234.856C352.874 235.032 352.51 235.12 352.094 235.12C351.646 235.12 351.25 235.024 350.906 234.832C350.562 234.64 350.294 234.352 350.102 233.968C349.91 233.576 349.814 233.096 349.814 232.528V231.628C349.814 231.052 349.91 230.572 350.102 230.188C350.294 229.804 350.562 229.516 350.906 229.324C351.25 229.124 351.646 229.024 352.094 229.024C352.534 229.024 352.906 229.12 353.21 229.312C353.514 229.496 353.742 229.756 353.894 230.092V226.24H354.83V235H353.894ZM359.586 237.46H359.226V236.644H359.586C359.818 236.644 360.018 236.612 360.186 236.548C360.362 236.492 360.526 236.368 360.678 236.176C360.83 235.984 360.986 235.692 361.146 235.3L361.47 234.532L359.154 229.144H360.162L361.938 233.38L363.702 229.144H364.674L361.938 235.612C361.738 236.1 361.53 236.476 361.314 236.74C361.106 237.012 360.866 237.2 360.594 237.304C360.322 237.408 359.986 237.46 359.586 237.46ZM367.861 235.12C367.101 235.12 366.493 234.904 366.037 234.472C365.581 234.032 365.353 233.384 365.353 232.528V231.616C365.353 230.76 365.581 230.116 366.037 229.684C366.493 229.244 367.101 229.024 367.861 229.024C368.621 229.024 369.229 229.244 369.685 229.684C370.149 230.116 370.381 230.76 370.381 231.616V232.528C370.381 233.384 370.149 234.032 369.685 234.472C369.229 234.904 368.621 235.12 367.861 235.12ZM367.861 229.84C367.325 229.84 366.933 230.004 366.685 230.332C366.437 230.652 366.313 231.08 366.313 231.616V232.516C366.313 233.068 366.437 233.504 366.685 233.824C366.933 234.144 367.325 234.304 367.861 234.304C368.397 234.304 368.789 234.144 369.037 233.824C369.293 233.504 369.421 233.068 369.421 232.516V231.616C369.421 231.08 369.293 230.652 369.037 230.332C368.789 230.004 368.397 229.84 367.861 229.84ZM375.712 235V233.824C375.544 234.264 375.3 234.592 374.98 234.808C374.66 235.016 374.284 235.12 373.852 235.12C373.22 235.12 372.74 234.952 372.412 234.616C372.084 234.28 371.92 233.764 371.92 233.068V229.144H372.856V232.876C372.856 233.364 372.96 233.732 373.168 233.98C373.376 234.22 373.708 234.34 374.164 234.34C374.452 234.34 374.712 234.268 374.944 234.124C375.176 233.98 375.36 233.772 375.496 233.5C375.64 233.228 375.712 232.9 375.712 232.516V229.144H376.66V235H375.712ZM382.642 233.536C382.642 233.816 382.69 234.004 382.786 234.1C382.882 234.196 383.05 234.244 383.29 234.244H383.47V235.06H383.254C382.886 235.06 382.586 235.016 382.354 234.928C382.13 234.84 381.962 234.688 381.85 234.472C381.746 234.248 381.694 233.94 381.694 233.548V226.24H382.642V233.536ZM385.315 228.004C385.123 228.004 384.963 227.948 384.835 227.836C384.715 227.716 384.655 227.568 384.655 227.392C384.655 227.216 384.715 227.072 384.835 226.96C384.963 226.84 385.123 226.78 385.315 226.78C385.515 226.78 385.675 226.84 385.795 226.96C385.923 227.072 385.987 227.216 385.987 227.392C385.987 227.568 385.923 227.716 385.795 227.836C385.675 227.948 385.515 228.004 385.315 228.004ZM384.847 235V229.144H385.795V235H384.847ZM391.677 235L389.709 232.24L388.713 233.368V235H387.765V226.24H388.713V232.144L391.377 229.144H392.445L390.333 231.532L392.841 235H391.677ZM398.232 233.248C398.176 233.856 397.932 234.32 397.5 234.64C397.076 234.96 396.532 235.12 395.868 235.12C395.124 235.12 394.524 234.904 394.068 234.472C393.612 234.032 393.384 233.384 393.384 232.528V231.616C393.384 230.76 393.612 230.116 394.068 229.684C394.524 229.244 395.128 229.024 395.88 229.024C396.608 229.024 397.188 229.244 397.62 229.684C398.052 230.124 398.268 230.776 398.268 231.64V232.18H394.356C394.356 232.276 394.356 232.372 394.356 232.468C394.364 232.556 394.372 232.648 394.38 232.744C394.404 233.232 394.54 233.62 394.788 233.908C395.036 234.188 395.412 234.328 395.916 234.328C395.964 234.328 396.008 234.328 396.048 234.328C396.096 234.328 396.14 234.324 396.18 234.316C396.524 234.276 396.792 234.164 396.984 233.98C397.176 233.796 397.292 233.552 397.332 233.248H398.232ZM394.356 231.496L394.428 231.58H397.38C397.356 230.972 397.228 230.524 396.996 230.236C396.764 229.948 396.392 229.804 395.88 229.804C395.368 229.804 394.988 229.96 394.74 230.272C394.492 230.576 394.364 230.984 394.356 231.496ZM405.986 234.268V235.06H405.134C404.494 235.06 404.026 234.916 403.73 234.628C403.442 234.34 403.298 233.884 403.298 233.26V229.936H402.386V229.144H403.298V227.416H404.234V229.144H405.986V229.936H404.234V233.272C404.234 233.6 404.31 233.848 404.462 234.016C404.622 234.184 404.902 234.268 405.302 234.268H405.986ZM409.416 235.12C408.656 235.12 408.048 234.904 407.592 234.472C407.136 234.032 406.908 233.384 406.908 232.528V231.616C406.908 230.76 407.136 230.116 407.592 229.684C408.048 229.244 408.656 229.024 409.416 229.024C410.176 229.024 410.784 229.244 411.24 229.684C411.704 230.116 411.936 230.76 411.936 231.616V232.528C411.936 233.384 411.704 234.032 411.24 234.472C410.784 234.904 410.176 235.12 409.416 235.12ZM409.416 229.84C408.88 229.84 408.488 230.004 408.24 230.332C407.992 230.652 407.868 231.08 407.868 231.616V232.516C407.868 233.068 407.992 233.504 408.24 233.824C408.488 234.144 408.88 234.304 409.416 234.304C409.952 234.304 410.344 234.144 410.592 233.824C410.848 233.504 410.976 233.068 410.976 232.516V231.616C410.976 231.08 410.848 230.652 410.592 230.332C410.344 230.004 409.952 229.84 409.416 229.84ZM417.214 228.004C417.022 228.004 416.862 227.948 416.734 227.836C416.614 227.716 416.554 227.568 416.554 227.392C416.554 227.216 416.614 227.072 416.734 226.96C416.862 226.84 417.022 226.78 417.214 226.78C417.414 226.78 417.574 226.84 417.694 226.96C417.822 227.072 417.886 227.216 417.886 227.392C417.886 227.568 417.822 227.716 417.694 227.836C417.574 227.948 417.414 228.004 417.214 228.004ZM417.694 235.756C417.694 236.188 417.626 236.524 417.49 236.764C417.362 237.012 417.17 237.188 416.914 237.292C416.658 237.404 416.35 237.46 415.99 237.46H415.558V236.668H415.906C416.202 236.668 416.414 236.596 416.542 236.452C416.678 236.316 416.746 236.088 416.746 235.768V229.144H417.694V235.756ZM421.908 235.12C421.148 235.12 420.54 234.904 420.084 234.472C419.628 234.032 419.4 233.384 419.4 232.528V231.616C419.4 230.76 419.628 230.116 420.084 229.684C420.54 229.244 421.148 229.024 421.908 229.024C422.668 229.024 423.276 229.244 423.732 229.684C424.196 230.116 424.428 230.76 424.428 231.616V232.528C424.428 233.384 424.196 234.032 423.732 234.472C423.276 234.904 422.668 235.12 421.908 235.12ZM421.908 229.84C421.372 229.84 420.98 230.004 420.732 230.332C420.484 230.652 420.36 231.08 420.36 231.616V232.516C420.36 233.068 420.484 233.504 420.732 233.824C420.98 234.144 421.372 234.304 421.908 234.304C422.444 234.304 422.836 234.144 423.084 233.824C423.34 233.504 423.468 233.068 423.468 232.516V231.616C423.468 231.08 423.34 230.652 423.084 230.332C422.836 230.004 422.444 229.84 421.908 229.84ZM426.589 228.004C426.397 228.004 426.237 227.948 426.109 227.836C425.989 227.716 425.929 227.568 425.929 227.392C425.929 227.216 425.989 227.072 426.109 226.96C426.237 226.84 426.397 226.78 426.589 226.78C426.789 226.78 426.949 226.84 427.069 226.96C427.197 227.072 427.261 227.216 427.261 227.392C427.261 227.568 427.197 227.716 427.069 227.836C426.949 227.948 426.789 228.004 426.589 228.004ZM426.121 235V229.144H427.069V235H426.121ZM429.987 231.664V235H429.039V229.144H429.987V230.248C430.171 229.84 430.427 229.536 430.755 229.336C431.091 229.128 431.467 229.024 431.883 229.024C432.523 229.024 433.011 229.196 433.347 229.54C433.683 229.876 433.851 230.4 433.851 231.112V235H432.915V231.304C432.915 230.808 432.811 230.44 432.603 230.2C432.395 229.96 432.051 229.84 431.571 229.84C431.283 229.84 431.019 229.912 430.779 230.056C430.539 230.2 430.347 230.408 430.203 230.68C430.059 230.944 429.987 231.272 429.987 231.664ZM439.15 230.332C438.886 230.556 438.658 230.752 438.466 230.92C438.274 231.088 438.122 231.28 438.01 231.496C437.906 231.712 437.854 232 437.854 232.36V232.864H436.918V232.396C436.918 232.028 436.946 231.72 437.002 231.472C437.058 231.224 437.166 231 437.326 230.8C437.486 230.592 437.718 230.368 438.022 230.128C438.27 229.928 438.482 229.756 438.658 229.612C438.842 229.46 438.982 229.304 439.078 229.144C439.182 228.976 439.234 228.776 439.234 228.544C439.234 228.144 439.098 227.836 438.826 227.62C438.562 227.404 438.19 227.296 437.71 227.296C437.19 227.296 436.778 227.432 436.474 227.704C436.178 227.976 436.03 228.34 436.03 228.796V229.096H435.118V228.772C435.118 228.308 435.23 227.904 435.454 227.56C435.678 227.216 435.986 226.952 436.378 226.768C436.77 226.576 437.218 226.48 437.722 226.48C438.202 226.48 438.626 226.56 438.994 226.72C439.37 226.88 439.662 227.112 439.87 227.416C440.086 227.72 440.194 228.088 440.194 228.52C440.194 228.792 440.142 229.04 440.038 229.264C439.934 229.48 439.802 229.68 439.642 229.864C439.482 230.04 439.318 230.196 439.15 230.332ZM437.386 235.12C437.194 235.12 437.034 235.056 436.906 234.928C436.778 234.8 436.714 234.644 436.714 234.46C436.714 234.26 436.778 234.1 436.906 233.98C437.034 233.852 437.194 233.788 437.386 233.788C437.586 233.788 437.75 233.848 437.878 233.968C438.006 234.088 438.07 234.252 438.07 234.46C438.07 234.644 438.006 234.8 437.878 234.928C437.75 235.056 437.586 235.12 437.386 235.12Z" fill="#888888"/>
<defs>
<filter id="filter0_d_281_320" x="186" y="112" width="403" height="380" filterUnits="userSpaceOnUse" color-interpolation-filters="sRGB">
<feFlood flood-opacity="0" result="BackgroundImageFix"/>
<feColorMatrix in="SourceAlpha" type="matrix" values="0 0 0 0 0 0 0 0 0 0 0 0 0 0 0 0 0 0 127 0" result="hardAlpha"/>
<feOffset dy="2"/>
<feGaussianBlur stdDeviation="5"/>
<feComposite in2="hardAlpha" operator="out"/>
<feColorMatrix type="matrix" values="0 0 0 0 0 0 0 0 0 0 0 0 0 0 0 0 0 0 0.1 0"/>
<feBlend mode="normal" in2="BackgroundImageFix" result="effect1_dropShadow_281_320"/>
<feBlend mode="normal" in="SourceGraphic" in2="effect1_dropShadow_281_320" result="shape"/>
</filter>
<filter id="filter1_d_281_320" x="264" y="324" width="287" height="56" filterUnits="userSpaceOnUse" color-interpolation-filters="sRGB">
<feFlood flood-opacity="0" result="BackgroundImageFix"/>
<feColorMatrix in="SourceAlpha" type="matrix" values="0 0 0 0 0 0 0 0 0 0 0 0 0 0 0 0 0 0 127 0" result="hardAlpha"/>
<feOffset dy="1"/>
<feGaussianBlur stdDeviation="2"/>
<feComposite in2="hardAlpha" operator="out"/>
<feColorMatrix type="matrix" values="0 0 0 0 0 0 0 0 0 0 0 0 0 0 0 0 0 0 0.1 0"/>
<feBlend mode="normal" in2="BackgroundImageFix" result="effect1_dropShadow_281_320"/>
<feBlend mode="normal" in="SourceGraphic" in2="effect1_dropShadow_281_320" result="shape"/>
</filter>
<filter id="filter2_d_281_320" x="264" y="243" width="287" height="56" filterUnits="userSpaceOnUse" color-interpolation-filters="sRGB">
<feFlood flood-opacity="0" result="BackgroundImageFix"/>
<feColorMatrix in="SourceAlpha" type="matrix" values="0 0 0 0 0 0 0 0 0 0 0 0 0 0 0 0 0 0 127 0" result="hardAlpha"/>
<feOffset dy="1"/>
<feGaussianBlur stdDeviation="2"/>
<feComposite in2="hardAlpha" operator="out"/>
<feColorMatrix type="matrix" values="0 0 0 0 0 0 0 0 0 0 0 0 0 0 0 0 0 0 0.1 0"/>
<feBlend mode="normal" in2="BackgroundImageFix" result="effect1_dropShadow_281_320"/>
<feBlend mode="normal" in="SourceGraphic" in2="effect1_dropShadow_281_320" result="shape"/>
</filter>
</defs>
</svg>
